<svg width="264" height="280" viewBox="0 0 264 280" fill="none" xmlns="http://www.w3.org/2000/svg">
<mask id="mask0_78_116" style="mask-type:alpha" maskUnits="userSpaceOnUse" x="12" y="40" width="240" height="240">
<path d="M132 280C198.274 280 252 226.274 252 160C252 93.7258 198.274 40 132 40C65.7258 40 12 93.7258 12 160C12 226.274 65.7258 280 132 280Z" fill="white"/>
</mask>
<g mask="url(#mask0_78_116)">
<path d="M132 280C198.274 280 252 226.274 252 160C252 93.7258 198.274 40 132 40C65.7258 40 12 93.7258 12 160C12 226.274 65.7258 280 132 280Z" fill="#E6E6E6"/>
<path d="M252 40H12V280H252V40Z" fill="#00539F"/>
</g>
<mask id="mask1_78_116" style="mask-type:alpha" maskUnits="userSpaceOnUse" x="0" y="0" width="264" height="280">
<path d="M12 160C12 226.274 65.7258 280 132 280C198.274 280 252 226.274 252 160H264V0H0V160H12Z" fill="white"/>
</mask>
<g mask="url(#mask1_78_116)">
<mask id="mask2_78_116" style="mask-type:alpha" maskUnits="userSpaceOnUse" x="32" y="36" width="200" height="244">
<path d="M156 180.611V199H160C199.765 199 232 231.235 232 271V280H32V271C32 231.235 64.2355 199 104 199H108V180.611C90.7626 172.422 78.3722 155.687 76.3051 135.881C70.4803 135.058 66 130.052 66 124V110C66 104.054 70.3246 99.1181 76 98.1659V92C76 61.0721 101.072 36 132 36C162.928 36 188 61.0721 188 92V98.1659C193.675 99.1181 198 104.054 198 110V124C198 130.052 193.52 135.058 187.695 135.881C185.628 155.687 173.237 172.422 156 180.611Z" fill="white"/>
</mask>
<g mask="url(#mask2_78_116)">
<path d="M156 180.611V199H160C199.765 199 232 231.235 232 271V280H32V271C32 231.235 64.2355 199 104 199H108V180.611C90.7626 172.422 78.3722 155.687 76.3051 135.881C70.4803 135.058 66 130.052 66 124V110C66 104.054 70.3246 99.1181 76 98.1659V92C76 61.0721 101.072 36 132 36C162.928 36 188 61.0721 188 92V98.1659C193.675 99.1181 198 104.054 198 110V124C198 130.052 193.52 135.058 187.695 135.881C185.628 155.687 173.237 172.422 156 180.611Z" fill="#D0C6AC"/>
<path d="M296 36H32V316H296V36Z" fill="#FFDBB4"/>
<path fill-rule="evenodd" clip-rule="evenodd" d="M188 115V138C188 168.928 162.928 194 132 194C101.072 194 76 168.928 76 138V115V130C76 160.928 101.072 186 132 186C162.928 186 188 160.928 188 130V115Z" fill="black" fill-opacity="0.1"/>
</g>
<mask id="mask3_78_116" style="mask-type:alpha" maskUnits="userSpaceOnUse" x="32" y="183" width="200" height="97">
<path fill-rule="evenodd" clip-rule="evenodd" d="M108 183.071C90.0813 185.076 76.2798 190.552 76.0042 204.645C50.1464 215.568 32 241.165 32 270.999V280H232V270.999C232 241.165 213.854 215.568 187.996 204.645C187.72 190.552 173.919 185.076 156 183.071V202C156 215.255 145.255 226 132 226C118.745 226 108 215.255 108 202V183.071Z" fill="white"/>
</mask>
<g mask="url(#mask3_78_116)">
<path fill-rule="evenodd" clip-rule="evenodd" d="M108 183.071C90.0813 185.076 76.2798 190.552 76.0042 204.645C50.1464 215.568 32 241.165 32 270.999V280H232V270.999C232 241.165 213.854 215.568 187.996 204.645C187.72 190.552 173.919 185.076 156 183.071V202C156 215.255 145.255 226 132 226C118.745 226 108 215.255 108 202V183.071Z" fill="#B7C1DB"/>
<path d="M264 170H0V280H264V170Z" fill="#929598"/>
<path fill-rule="evenodd" clip-rule="evenodd" d="M102 231.739V280H95V228.15C97.2038 229.46 99.5468 230.661 102 231.739ZM169 228.15V268.5C169 270.433 167.433 272 165.5 272C163.567 272 162 270.433 162 268.5V231.739C164.453 230.661 166.796 229.46 169 228.15Z" fill="#F4F4F4"/>
<path fill-rule="evenodd" clip-rule="evenodd" d="M90.9601 182.724C75.9093 185.571 65.5 191.243 65.5 202.308C65.5 222.02 98.5377 238 132 238C165.462 238 198.5 222.02 198.5 202.308C198.5 191.243 188.091 185.571 173.04 182.724C182.125 186.074 188 191.706 188 201.077C188 221.469 160.179 238 132 238C103.821 238 76 221.469 76 201.077C76 191.706 81.8751 186.074 90.9601 182.724Z" fill="black" fill-opacity="0.16"/>
</g>
<mask id="mask4_78_116" style="mask-type:alpha" maskUnits="userSpaceOnUse" x="113" y="147" width="38" height="19">
<path fill-rule="evenodd" clip-rule="evenodd" d="M113.118 149.128C114.176 158.62 122.226 166 132 166C141.804 166 149.874 158.574 150.892 149.04C150.974 148.273 150.117 147 149.043 147C134.149 147 122.738 147 115.087 147C114.007 147 113.012 148.178 113.118 149.128Z" fill="white"/>
</mask>
<g mask="url(#mask4_78_116)">
<path fill-rule="evenodd" clip-rule="evenodd" d="M113.118 149.128C114.176 158.62 122.226 166 132 166C141.804 166 149.874 158.574 150.892 149.04C150.974 148.273 150.117 147 149.043 147C134.149 147 122.738 147 115.087 147C114.007 147 113.012 148.178 113.118 149.128Z" fill="black" fill-opacity="0.7"/>
<path d="M143 136H122C119.239 136 117 138.239 117 141V147C117 149.761 119.239 152 122 152H143C145.761 152 148 149.761 148 147V141C148 138.239 145.761 136 143 136Z" fill="white"/>
<path d="M127 180C133.075 180 138 175.075 138 169C138 162.925 133.075 158 127 158C120.925 158 116 162.925 116 169C116 175.075 120.925 180 127 180Z" fill="#FF4F6D"/>
<path d="M137 180C143.075 180 148 175.075 148 169C148 162.925 143.075 158 137 158C130.925 158 126 162.925 126 169C126 175.075 130.925 180 137 180Z" fill="#FF4F6D"/>
</g>
<path fill-rule="evenodd" clip-rule="evenodd" d="M120 130C120 134.418 125.373 138 132 138C138.627 138 144 134.418 144 130" fill="black" fill-opacity="0.16"/>
<path d="M106 126C113.732 126 120 119.732 120 112C120 104.268 113.732 98 106 98C98.268 98 92 104.268 92 112C92 119.732 98.268 126 106 126Z" fill="white"/>
<path d="M158 126C165.732 126 172 119.732 172 112C172 104.268 165.732 98 158 98C150.268 98 144 104.268 144 112C144 119.732 150.268 126 158 126Z" fill="white"/>
<path d="M106 118C109.314 118 112 115.314 112 112C112 108.686 109.314 106 106 106C102.686 106 100 108.686 100 112C100 115.314 102.686 118 106 118Z" fill="black" fill-opacity="0.7"/>
<path d="M158 118C161.314 118 164 115.314 164 112C164 108.686 161.314 106 158 106C154.686 106 152 108.686 152 112C152 115.314 154.686 118 158 118Z" fill="black" fill-opacity="0.7"/>
<path d="M91.6302 99.1586C95.5451 93.6499 106.278 90.5608 115.523 92.8312C116.596 93.0946 117.679 92.4386 117.942 91.3659C118.206 90.2932 117.55 89.21 116.477 88.9466C105.74 86.31 93.3121 89.887 88.3697 96.8414C87.7299 97.7418 87.941 98.9904 88.8414 99.6302C89.7418 100.27 90.9904 100.059 91.6302 99.1586Z" fill="black" fill-opacity="0.6"/>
<path d="M172.37 99.1586C168.455 93.6499 157.722 90.5608 148.477 92.8312C147.405 93.0946 146.321 92.4386 146.058 91.3659C145.795 90.2932 146.451 89.21 147.523 88.9466C158.26 86.31 170.688 89.887 175.631 96.8414C176.27 97.7418 176.059 98.9904 175.159 99.6302C174.258 100.27 173.01 100.059 172.37 99.1586Z" fill="black" fill-opacity="0.6"/>
<mask id="mask5_78_116" style="mask-type:alpha" maskUnits="userSpaceOnUse" x="0" y="0" width="264" height="280">
<path d="M264 0H0V280H264V0Z" fill="white"/>
</mask>
<g mask="url(#mask5_78_116)">
<mask id="mask6_78_116" style="mask-type:alpha" maskUnits="userSpaceOnUse" x="73" y="26" width="118" height="73">
<path fill-rule="evenodd" clip-rule="evenodd" d="M166.309 35.0061C146.121 23.3065 126.129 25.222 111.037 29.03C95.9448 32.838 87.0168 43.6513 79.3567 59.6481C75.5956 67.5029 73.366 76.7915 73.0231 85.4814C72.8884 88.8933 73.3484 92.4152 74.2677 95.7004C74.6049 96.9062 76.4232 101.087 76.9225 97.7088C77.0885 96.5842 76.4804 95.0327 76.4216 93.8376C76.3444 92.2694 76.4273 90.6808 76.5342 89.1149C76.7341 86.1874 77.256 83.3154 78.1847 80.5247C79.5119 76.5367 81.2014 72.2129 83.7874 68.8481C90.1884 60.5206 101.269 60.0459 110.066 55.4636C109.303 56.8687 106.36 59.1433 107.379 60.7269C108.084 61.8207 110.749 61.4891 112.022 61.454C115.371 61.3624 118.735 60.7797 122.043 60.307C127.256 59.5618 132.141 58.0518 137.047 56.2181C141.063 54.7164 145.65 53.3257 148.669 50.1405C153.54 55.1881 159.81 59.9346 166.07 63.1429C171.688 66.0222 180.749 67.4611 184.183 73.3007C188.248 80.2147 186.378 88.7074 187.619 96.2008C188.091 99.0504 189.164 98.9866 189.751 96.4378C190.748 92.1083 191.219 87.6102 190.902 83.1593C190.184 73.1115 186.497 46.7057 166.309 35.0061Z" fill="white"/>
</mask>
<g mask="url(#mask6_78_116)">
<path fill-rule="evenodd" clip-rule="evenodd" d="M166.309 35.0061C146.121 23.3065 126.129 25.222 111.037 29.03C95.9448 32.838 87.0168 43.6513 79.3567 59.6481C75.5956 67.5029 73.366 76.7915 73.0231 85.4814C72.8884 88.8933 73.3484 92.4152 74.2677 95.7004C74.6049 96.9062 76.4232 101.087 76.9225 97.7088C77.0885 96.5842 76.4804 95.0327 76.4216 93.8376C76.3444 92.2694 76.4273 90.6808 76.5342 89.1149C76.7341 86.1874 77.256 83.3154 78.1847 80.5247C79.5119 76.5367 81.2014 72.2129 83.7874 68.8481C90.1884 60.5206 101.269 60.0459 110.066 55.4636C109.303 56.8687 106.36 59.1433 107.379 60.7269C108.084 61.8207 110.749 61.4891 112.022 61.454C115.371 61.3624 118.735 60.7797 122.043 60.307C127.256 59.5618 132.141 58.0518 137.047 56.2181C141.063 54.7164 145.65 53.3257 148.669 50.1405C153.54 55.1881 159.81 59.9346 166.07 63.1429C171.688 66.0222 180.749 67.4611 184.183 73.3007C188.248 80.2147 186.378 88.7074 187.619 96.2008C188.091 99.0504 189.164 98.9866 189.751 96.4378C190.748 92.1083 191.219 87.6102 190.902 83.1593C190.184 73.1115 186.497 46.7057 166.309 35.0061Z" fill="#28354B"/>
<path d="M263 0H-1V280H263V0Z" fill="#B58143"/>
<g filter="url(#filter0_d_78_116)">
<path fill-rule="evenodd" clip-rule="evenodd" d="M141.465 101.394C145.38 93.4587 153.553 88 163 88C171.92 88 179.703 92.8659 183.84 100.088C184.05 100.031 184.272 100 184.5 100H192.5C193.881 100 195 101.119 195 102.5C195 103.881 193.881 105 192.5 105H185.963C186.637 107.215 187 109.565 187 112C187 125.255 176.255 136 163 136C149.745 136 139 125.255 139 112C139 110.578 139.124 109.185 139.361 107.831C139.276 103.455 135.914 100 131.862 100C128.126 100 124.975 102.94 124.442 106.83C124.807 108.495 125 110.225 125 112C125 125.255 114.255 136 101 136C87.7452 136 77 125.255 77 112C77 109.565 77.3626 107.215 78.0369 105H71.5C70.1193 105 69 103.881 69 102.5C69 101.119 70.1193 100 71.5 100H79.5C79.7285 100 79.9498 100.031 80.1601 100.088C84.2971 92.8659 92.0803 88 101 88C110.352 88 118.455 93.3492 122.416 101.155C124.493 98.0393 127.949 96 131.862 96C135.875 96 139.407 98.1441 141.465 101.394ZM101 132C112.046 132 121 123.046 121 112C121 100.954 112.046 92 101 92C89.9543 92 81 100.954 81 112C81 123.046 89.9543 132 101 132ZM163 132C174.046 132 183 123.046 183 112C183 100.954 174.046 92 163 92C151.954 92 143 100.954 143 112C143 123.046 151.954 132 163 132Z" fill="black"/>
</g>
<path fill-rule="evenodd" clip-rule="evenodd" d="M141.465 101.394C145.38 93.4587 153.553 88 163 88C171.92 88 179.703 92.8659 183.84 100.088C184.05 100.031 184.272 100 184.5 100H192.5C193.881 100 195 101.119 195 102.5C195 103.881 193.881 105 192.5 105H185.963C186.637 107.215 187 109.565 187 112C187 125.255 176.255 136 163 136C149.745 136 139 125.255 139 112C139 110.578 139.124 109.185 139.361 107.831C139.276 103.455 135.914 100 131.862 100C128.126 100 124.975 102.94 124.442 106.83C124.807 108.495 125 110.225 125 112C125 125.255 114.255 136 101 136C87.7452 136 77 125.255 77 112C77 109.565 77.3626 107.215 78.0369 105H71.5C70.1193 105 69 103.881 69 102.5C69 101.119 70.1193 100 71.5 100H79.5C79.7285 100 79.9498 100.031 80.1601 100.088C84.2971 92.8659 92.0803 88 101 88C110.352 88 118.455 93.3492 122.416 101.155C124.493 98.0393 127.949 96 131.862 96C135.875 96 139.407 98.1441 141.465 101.394ZM101 132C112.046 132 121 123.046 121 112C121 100.954 112.046 92 101 92C89.9543 92 81 100.954 81 112C81 123.046 89.9543 132 101 132ZM163 132C174.046 132 183 123.046 183 112C183 100.954 174.046 92 163 92C151.954 92 143 100.954 143 112C143 123.046 151.954 132 163 132Z" fill="#252C2F"/>
</g>
</g>
</g>
<defs>
<filter id="filter0_d_78_116" x="65" y="86" width="134" height="56" filterUnits="userSpaceOnUse" color-interpolation-filters="sRGB">
<feFlood flood-opacity="0" result="BackgroundImageFix"/>
<feColorMatrix in="SourceAlpha" type="matrix" values="0 0 0 0 0 0 0 0 0 0 0 0 0 0 0 0 0 0 127 0" result="hardAlpha"/>
<feOffset dy="2"/>
<feGaussianBlur stdDeviation="2"/>
<feColorMatrix type="matrix" values="0 0 0 0 0 0 0 0 0 0 0 0 0 0 0 0 0 0 0.1 0"/>
<feBlend mode="normal" in2="BackgroundImageFix" result="effect1_dropShadow_78_116"/>
<feBlend mode="normal" in="SourceGraphic" in2="effect1_dropShadow_78_116" result="shape"/>
</filter>
</defs>
</svg>
