<svg width="1861" height="1400" viewBox="0 0 1861 1400" fill="none" xmlns="http://www.w3.org/2000/svg">
<path d="M1860 0H0V1400H1860V0Z" fill="#B0DEE1"/>
<path d="M0 734V197.3H198.09C229.223 197.305 259.786 205.657 286.594 221.486C313.403 237.315 335.478 260.042 350.52 287.3L367.7 318.42H546.93C577.812 318.42 608.344 324.967 636.511 337.63C664.678 350.292 689.841 368.782 710.34 391.88L812.46 506.97H1130.92C1145.72 506.969 1160.28 503.263 1173.28 496.191C1186.27 489.118 1197.29 478.904 1205.33 466.48L1219.46 444.63C1231.79 425.572 1248.69 409.903 1268.62 399.054C1288.56 388.205 1310.89 382.521 1333.59 382.52H1479.92L1480.92 305.78C1482.57 177.66 1586.92 74.6602 1715.02 74.6602H1860.02V729.94L0 734Z" fill="white"/>
<path d="M871.49 597.93C948.942 597.93 1011.73 535.143 1011.73 457.69C1011.73 380.238 948.942 317.45 871.49 317.45C794.038 317.45 731.25 380.238 731.25 457.69C731.25 535.143 794.038 597.93 871.49 597.93Z" fill="#EEB200"/>
<path d="M1284.32 597.52L842.21 734H0V387.88H361C570.837 387.878 779.291 421.833 978.28 488.43L1284.32 597.52Z" fill="#27CECD"/>
<path d="M1860 428.109V832.309H862.21V737.999C862.613 737.998 863.014 737.937 863.4 737.819L1860 428.109Z" fill="#C49400"/>
<path d="M1860 579.569V832.309H1675.78L1860 579.569Z" fill="#EEB200"/>
<path d="M1702.98 476.919L1443.77 832.309H1255.76L1459.85 552.479L1702.98 476.919Z" fill="#EEB200"/>
<path d="M1512.4 536.149L1296.41 832.309L1295.33 833.789L1293.3 832.309L1291.29 830.839L1504.4 538.629L1512.4 536.149Z" fill="#C49400"/>
<path d="M1560.95 521.06L1333.96 832.31L1332.88 833.79L1330.85 832.31L1328.84 830.84L1552.95 523.55L1560.95 521.06Z" fill="#C49400"/>
<path d="M1609.51 505.97L1371.51 832.31L1370.43 833.79L1368.4 832.31L1366.39 830.84L1601.51 508.45H1601.52L1609.51 505.97Z" fill="#C49400"/>
<path d="M1658.06 490.879L1409.06 832.309L1407.98 833.789L1405.95 832.309L1403.94 830.839L1650.06 493.369L1658.06 490.879Z" fill="#C49400"/>
<path d="M1860 626.93V635.42L1715.33 833.78L1711.29 830.84L1860 626.93Z" fill="#C49400"/>
<path d="M1860 678.419V686.899L1752.88 833.779L1748.84 830.839L1860 678.419Z" fill="#C49400"/>
<path d="M1860 729.909V738.379L1790.42 833.779L1786.39 830.839L1860 729.909Z" fill="#C49400"/>
<path d="M1860 781.379V789.859L1827.97 833.779L1823.93 830.839L1860 781.379Z" fill="#C49400"/>
<path d="M1747.43 738.489H1508.3V743.489H1747.43V738.489Z" fill="#EEB200"/>
<path d="M1324.2 738.749H1126.09V743.749H1324.2V738.749Z" fill="#EEB200"/>
<path d="M1725.34 768.789H1486.21V773.789H1725.34V768.789Z" fill="#EEB200"/>
<path d="M1302.45 769.069H1104.06V774.069H1302.45V769.069Z" fill="#EEB200"/>
<path d="M1705.3 799.079H1464.12V804.079H1705.3V799.079Z" fill="#EEB200"/>
<path d="M1280.17 799.379H1082.02V804.379H1280.17V799.379Z" fill="#EEB200"/>
<path d="M1813.78 647.55H1574.54V652.55H1813.78V647.55Z" fill="#EEB200"/>
<path d="M1390.85 647.8H1192.4V652.8H1390.85V647.8Z" fill="#EEB200"/>
<path d="M1792.57 677.85H1552.51V682.85H1792.57V677.85Z" fill="#EEB200"/>
<path d="M1368.75 678.109H1170.29V683.109H1368.75V678.109Z" fill="#EEB200"/>
<path d="M1770.55 708.149H1530.33V713.149H1770.55V708.149Z" fill="#EEB200"/>
<path d="M1346.67 708.419H1148.28V713.419H1346.67V708.419Z" fill="#EEB200"/>
<path d="M1857.96 586.989H1618.72V591.989H1857.96V586.989Z" fill="#EEB200"/>
<path d="M1434.7 592.149L1331.99 592.219L1348.11 587.209L1434.69 587.149L1434.7 592.149Z" fill="#EEB200"/>
<path d="M1835.86 617.279H1596.67V622.279H1835.86V617.279Z" fill="#EEB200"/>
<path d="M1860 556.669V561.669L1640.83 561.729L1640.82 556.729L1860 556.669Z" fill="#EEB200"/>
<path d="M1412.92 622.459L1234.27 622.589L1250.39 617.579L1412.91 617.459L1412.92 622.459Z" fill="#EEB200"/>
<path d="M1860 526.369H1663.72V531.369H1860V526.369Z" fill="#EEB200"/>
<path d="M1860 495.699H1684.72V500.699H1860V495.699Z" fill="#EEB200"/>
<path d="M1860 465.359V470.359L1723.98 470.389L1740.08 465.379L1860 465.359Z" fill="#EEB200"/>
<path d="M1209.18 630.379L1061.9 832.319H873.89L966.06 705.939L1209.18 630.379Z" fill="#EEB200"/>
<path d="M1018.61 689.609L914.53 832.319L913.46 833.789L911.45 832.319L909.42 830.839L1010.61 692.099L1018.61 689.609Z" fill="#C49400"/>
<path d="M1067.16 674.52L952.08 832.319L951.01 833.79L949 832.319L946.97 830.839L1059.17 677L1067.16 674.52Z" fill="#C49400"/>
<path d="M1115.72 659.43L989.63 832.32L988.56 833.79L986.55 832.32L984.52 830.84L1107.72 661.91L1115.72 659.43Z" fill="#C49400"/>
<path d="M1164.27 644.34L1027.17 832.32L1026.1 833.79L1024.09 832.32L1022.07 830.84L1156.27 646.82H1156.28L1164.27 644.34Z" fill="#C49400"/>
<path d="M1860 832.31V1400H0V492.87H54.61C70.9234 492.871 86.7652 498.343 99.6021 508.41C112.439 518.477 121.53 532.557 125.42 548.4L154.7 527.65C162.258 522.999 170.893 520.388 179.762 520.07C188.631 519.752 197.431 521.739 205.303 525.837C213.175 529.935 219.849 536.004 224.676 543.452C229.502 550.899 232.315 559.471 232.84 568.33C241.092 563.47 250.54 561.016 260.114 561.244C269.689 561.473 279.008 564.376 287.019 569.625C295.03 574.873 301.413 582.258 305.446 590.945C309.478 599.632 311.001 609.274 309.84 618.78L1174.49 832.31H1860Z" fill="#379BA0"/>
<path d="M1462.17 543.37L1366 573.27C1367.22 521.35 1386.45 467.32 1410.79 461.27L1403 450.8C1402.8 450.537 1402.66 450.238 1402.58 449.92C1402.5 449.602 1402.48 449.271 1402.53 448.946C1402.57 448.621 1402.68 448.309 1402.85 448.026C1403.02 447.744 1403.24 447.497 1403.5 447.3C1403.76 447.103 1404.06 446.96 1404.38 446.878C1404.7 446.797 1405.03 446.778 1405.35 446.825C1405.68 446.871 1405.99 446.981 1406.27 447.149C1406.56 447.316 1406.8 447.537 1407 447.8L1414.4 457.71L1421.8 447.8C1422 447.537 1422.24 447.316 1422.53 447.149C1422.81 446.981 1423.12 446.871 1423.45 446.825C1423.77 446.778 1424.1 446.797 1424.42 446.878C1424.74 446.96 1425.04 447.103 1425.3 447.3C1425.56 447.497 1425.78 447.744 1425.95 448.026C1426.12 448.309 1426.23 448.621 1426.27 448.946C1426.32 449.271 1426.3 449.602 1426.22 449.92C1426.14 450.238 1426 450.537 1425.8 450.8L1418.25 460.91C1438.76 464.22 1455.91 502 1462.17 543.37Z" fill="#EEB200"/>
<path d="M1607.26 498.28L1511.39 528.08C1512.61 475.57 1531.66 412.62 1555.99 405.58L1548.14 395.06C1547.74 394.529 1547.57 393.862 1547.67 393.206C1547.76 392.55 1548.11 391.957 1548.64 391.56C1549.17 391.162 1549.84 390.991 1550.49 391.085C1551.15 391.178 1551.74 391.529 1552.14 392.06L1559.54 401.97L1566.94 392.06C1567.34 391.529 1567.93 391.178 1568.59 391.085C1569.24 390.991 1569.91 391.162 1570.44 391.56C1570.97 391.957 1571.32 392.55 1571.42 393.206C1571.51 393.862 1571.34 394.529 1570.94 395.06L1563.35 405.23C1583.8 409.32 1600.91 456.26 1607.26 498.28Z" fill="#EEB200"/>
<path d="M1469.69 684.23V733.83H1382.46L1418.82 684.23H1469.69Z" fill="#C49400"/>
<path d="M1473.69 680.23V733.83H1465.69V688.23H1423.05V733.83H1415.05V696.141L1387.43 733.83H1377.5L1416.79 680.23H1473.69Z" fill="#285152"/>
<path d="M1471.81 738.45H1315.2V763.31H1322.58C1333.52 763.31 1344.01 767.656 1351.75 775.392C1359.48 783.128 1363.83 793.62 1363.83 804.56V809.24H1410.9V790.4C1410.9 776.618 1416.37 763.399 1426.11 753.648C1435.85 743.898 1449.07 738.414 1462.85 738.4L1471.81 738.45Z" fill="#DC5733"/>
<path d="M1366.33 809.24H1361.33V804.561C1361.32 794.287 1357.23 784.436 1349.97 777.172C1342.7 769.907 1332.85 765.821 1322.58 765.811H1315.2V760.811H1322.58C1334.18 760.824 1345.3 765.437 1353.5 773.639C1361.7 781.841 1366.32 792.961 1366.33 804.561V809.24Z" fill="white"/>
<path d="M1475.19 733.82H1315.2V738.82H1475.19V733.82Z" fill="white"/>
<path d="M1506.26 788.921C1506.26 797.475 1503.72 805.837 1498.97 812.949C1494.22 820.062 1487.46 825.605 1479.56 828.879C1471.66 832.152 1462.96 833.009 1454.57 831.34C1446.18 829.671 1438.48 825.552 1432.43 819.503C1426.38 813.455 1422.26 805.748 1420.59 797.359C1418.92 788.969 1419.78 780.273 1423.05 772.37C1426.33 764.467 1431.87 757.712 1438.98 752.96C1446.09 748.207 1454.46 745.671 1463.01 745.671C1474.48 745.681 1485.47 750.242 1493.58 758.35C1501.69 766.459 1506.25 777.454 1506.26 788.921V788.921Z" fill="#285152"/>
<path d="M1463 755.671C1456.42 755.671 1450 757.621 1444.53 761.275C1439.06 764.928 1434.8 770.121 1432.28 776.197C1429.76 782.272 1429.11 788.958 1430.39 795.408C1431.67 801.857 1434.84 807.782 1439.49 812.432C1444.14 817.082 1450.06 820.249 1456.51 821.532C1462.96 822.815 1469.65 822.157 1475.72 819.64C1481.8 817.123 1486.99 812.861 1490.65 807.394C1494.3 801.926 1496.25 795.497 1496.25 788.921C1496.24 780.105 1492.74 771.652 1486.5 765.418C1480.27 759.184 1471.82 755.679 1463 755.671V755.671ZM1463 816.311C1457.58 816.309 1452.29 814.701 1447.79 811.69C1443.28 808.679 1439.77 804.401 1437.7 799.396C1435.63 794.391 1435.09 788.884 1436.15 783.571C1437.21 778.259 1439.81 773.379 1443.65 769.55C1447.48 765.72 1452.36 763.112 1457.67 762.056C1462.98 761 1468.49 761.543 1473.49 763.617C1478.5 765.69 1482.78 769.201 1485.78 773.705C1488.79 778.209 1490.4 783.504 1490.4 788.921C1490.4 796.186 1487.51 803.153 1482.37 808.289C1477.23 813.425 1470.27 816.311 1463 816.311Z" fill="white"/>
<path d="M1353.45 802.57C1353.45 808.423 1351.72 814.146 1348.47 819.013C1345.22 823.881 1340.6 827.675 1335.19 829.916C1329.78 832.157 1323.83 832.744 1318.09 831.602C1312.35 830.461 1307.08 827.642 1302.94 823.504C1298.8 819.365 1295.98 814.091 1294.84 808.35C1293.7 802.61 1294.28 796.659 1296.52 791.252C1298.77 785.845 1302.56 781.224 1307.43 777.973C1312.29 774.722 1318.02 772.988 1323.87 772.99C1331.71 773.001 1339.23 776.121 1344.77 781.666C1350.32 787.211 1353.44 794.728 1353.45 802.57V802.57Z" fill="#285152"/>
<path d="M1323.87 783C1319.99 782.998 1316.21 784.146 1312.98 786.297C1309.76 788.449 1307.25 791.509 1305.76 795.089C1304.28 798.669 1303.89 802.608 1304.65 806.409C1305.4 810.21 1307.27 813.702 1310.01 816.442C1312.75 819.183 1316.24 821.049 1320.04 821.804C1323.84 822.56 1327.78 822.171 1331.36 820.687C1334.94 819.203 1338 816.69 1340.15 813.467C1342.3 810.244 1343.45 806.455 1343.45 802.58C1343.44 797.389 1341.38 792.414 1337.71 788.744C1334.04 785.073 1329.06 783.008 1323.87 783ZM1323.87 816.62C1321.1 816.62 1318.39 815.799 1316.09 814.261C1313.79 812.722 1312 810.536 1310.94 807.978C1309.88 805.419 1309.6 802.605 1310.14 799.889C1310.68 797.173 1312.01 794.678 1313.97 792.72C1315.93 790.763 1318.42 789.429 1321.14 788.889C1323.85 788.349 1326.67 788.626 1329.23 789.686C1331.79 790.745 1333.97 792.54 1335.51 794.842C1337.05 797.144 1337.87 799.851 1337.87 802.62C1337.87 806.331 1336.39 809.89 1333.77 812.513C1331.14 815.136 1327.58 816.61 1323.87 816.61V816.62Z" fill="white"/>
<path d="M1178.16 949.53C1178.16 953.096 1177.81 956.654 1177.11 960.15H989.69V906.39C989.712 892.424 995.17 879.014 1004.91 869C1014.64 858.986 1027.89 853.155 1041.85 852.741C1055.81 852.326 1069.39 857.361 1079.7 866.779C1090.02 876.197 1096.26 889.26 1097.11 903.2C1105.28 898.396 1114.57 895.834 1124.04 895.775C1133.52 895.716 1142.84 898.161 1151.07 902.864C1159.3 907.566 1166.13 914.359 1170.89 922.553C1175.65 930.748 1178.16 940.055 1178.16 949.53V949.53Z" fill="#285152"/>
<path d="M563.81 775.399H334.67V960.149H563.81V775.399Z" fill="#D45131"/>
<path d="M989.69 775.4V960.14H563.8V775.4L628.04 637.31L776.75 531.09L925.46 637.31L989.69 775.4Z" fill="#FF6500"/>
<path d="M563.81 775.399H334.67V796.989H563.81V775.399Z" fill="#285152"/>
<path d="M815.2 624.89H759.54V734.02H815.2V624.89Z" fill="#D45131"/>
<path d="M819.2 738H755.54V620.89H819.2V738ZM763.54 730H811.2V628.89H763.54V730Z" fill="white"/>
<path d="M886.51 679.46H851.59V734.03H886.51V679.46Z" fill="#285152"/>
<path d="M896.07 679.46H886.51V734.03H896.07V679.46Z" fill="#D45131"/>
<path d="M712.53 679.46H702.97V734.03H712.53V679.46Z" fill="#D45131"/>
<path d="M702.97 679.46H668.05V734.03H702.97V679.46Z" fill="#285152"/>
<path d="M905.39 759.67H647.42V960.15H905.39V759.67Z" fill="#D45131"/>
<path d="M779.93 769.22V949.53H772.49V775.59H665.11V769.22H779.93Z" fill="#285152"/>
<path d="M766.2 949.53L665.1 790.79L665.11 776.689L775.2 949.53H766.2Z" fill="#285152"/>
<path d="M905.38 769.22V949.53H897.95V775.59H790.56V769.22H905.38Z" fill="#285152"/>
<path d="M790.56 776.689L900.65 949.53H891.47L790.56 791.099V776.689Z" fill="#285152"/>
<path d="M655.55 759.67V960.15H915V759.67H655.55ZM900.64 769.23L847.97 851.93L795.3 769.23H900.64ZM775.19 769.23L722.52 851.93L669.85 769.23H775.19ZM665.11 776.69L717.78 859.38L665.11 942.07V776.69ZM669.84 949.53L722.52 866.82L775.2 949.53H669.84ZM779.94 942.09L727.26 859.38L779.94 776.67V942.09ZM790.56 776.69L843.23 859.38L790.56 942.07V776.69ZM795.29 949.53L847.97 866.82L900.65 949.53H795.29ZM905.39 942.09L852.71 859.38L905.39 776.67V942.09Z" fill="white"/>
<path d="M861.43 584.44L779.6 526L773.6 532.18V584.46H713.45L698.73 595.08H860.61L928.69 643.71L989.95 775.42H1000.49L936.63 638.15L861.43 584.44ZM784.18 584.44V540.5L845.7 584.44H784.18Z" fill="#D45131"/>
<path d="M298.25 775.4L364.61 632L511.2 531.09H776.75L630.16 632L563.8 775.4H298.25Z" fill="#DEDEDE"/>
<path d="M713.41 545.279L592 631.999H585.12L706.53 545.279H713.41Z" fill="#C4C4C4"/>
<path d="M682.17 545.279L560.77 631.999H553.89L675.3 545.279H682.17Z" fill="#C4C4C4"/>
<path d="M650.94 545.279L529.53 631.999H522.66L644.07 545.279H650.94Z" fill="#C4C4C4"/>
<path d="M619.71 545.279L498.3 631.999H491.43L612.83 545.279H619.71Z" fill="#C4C4C4"/>
<path d="M588.48 545.279L467.07 631.999H460.19L581.6 545.279H588.48Z" fill="#C4C4C4"/>
<path d="M557.25 545.279L435.84 631.999H428.96L550.37 545.279H557.25Z" fill="#C4C4C4"/>
<path d="M526.01 545.279L404.6 631.999H397.73L519.14 545.279H526.01Z" fill="#C4C4C4"/>
<path d="M776.75 531.1L756.9 545.28H490.59L511.2 531.1H776.75Z" fill="#C4C4C4"/>
<path d="M630.16 632L563.8 775.4H298.25L364.61 632H630.16Z" fill="#C4C4C4"/>
<path d="M518.22 822.8H459.96V838.63H518.22V822.8Z" fill="#285152"/>
<path d="M430.29 822.8H372.03V838.63H430.29V822.8Z" fill="#285152"/>
<path d="M945.09 629.63L791.31 521.24V514.24C791.31 512.914 790.783 511.642 789.846 510.704C788.908 509.766 787.636 509.24 786.31 509.24C784.984 509.24 783.712 509.766 782.774 510.704C781.837 511.642 781.31 512.914 781.31 514.24H521.82C521.82 512.831 521.26 511.481 520.265 510.485C519.269 509.489 517.918 508.93 516.51 508.93C515.102 508.93 513.751 509.489 512.755 510.485C511.759 511.481 511.2 512.831 511.2 514.24V531.04H767.27L629 631.75L562.14 775.4H576.55L640.79 637.32L710.79 586.25H862.94C863.126 586.265 863.314 586.265 863.5 586.25L935 637.32L999.23 775.4H1012.88L945.09 629.63ZM781.31 534.75V568.75L761.31 549.43L781.31 534.75ZM724.46 576.25L753.08 555.35L753.42 555.71L774.73 576.25H724.46ZM791.31 534.67L811.59 549.16L791.31 568.7V534.67ZM797.89 576.25L819.2 555.71C819.416 555.494 819.617 555.264 819.8 555.02L849.52 576.25H797.89Z" fill="white"/>
<path d="M0 960.14H1179.92C1248.46 960.142 1316.78 967.997 1383.54 983.55L1860 1101V1400H0V960.14Z" fill="#EEB200"/>
<path d="M1177.11 960.149L1133.65 971.699C1114.34 976.827 1094.44 979.422 1074.46 979.419H1029.76C1005.01 990.461 978.212 996.168 951.11 996.169H900.8L620 1109.92H0V960.149H1177.11Z" fill="#C49400"/>
<path d="M606.9 917.26H602.9V960.15H606.9V917.26Z" fill="#EEB200"/>
<path d="M593.59 933.27H589.59V960.14H593.59V933.27Z" fill="#EEB200"/>
<path d="M416.9 1159.67L539.05 1109.72H567.1L0 1341.72V1322.17L404.63 1156.7L416.9 1159.67Z" fill="#C49400"/>
<path d="M331.22 1160.53L0 1296V1284.4L319.11 1154.01L331.22 1160.53Z" fill="#C49400"/>
<path d="M549.1 1083.31H539.1V1109.72H549.1V1083.31Z" fill="#285152"/>
<path d="M576.71 1083.31H566.71V1109.72H576.71V1083.31Z" fill="#285152"/>
<path d="M619.57 1083.31H609.57V1109.72H619.57V1083.31Z" fill="#285152"/>
<path d="M582.03 1096.92C620.22 1096.92 651.18 1070.19 651.18 1037.22C651.18 1004.25 620.22 977.52 582.03 977.52C543.839 977.52 512.88 1004.25 512.88 1037.22C512.88 1070.19 543.839 1096.92 582.03 1096.92Z" fill="white"/>
<path d="M585.15 1041.41C583.21 1043.35 577.67 1041.05 572.06 1036.21C571.651 1037.99 571.088 1039.73 570.38 1041.41C566.13 1051.51 557.66 1057.59 551.47 1054.99C545.28 1052.39 543.71 1042.08 547.96 1031.99C551.28 1024.12 557.15 1018.68 562.51 1017.91C565.15 1016.5 571.65 1019.85 577.62 1025.82C584 1032.19 587.38 1039.18 585.15 1041.41Z" fill="#285152"/>
<path d="M331.11 1126.93H319.11V1160.77H331.11V1126.93Z" fill="#285152"/>
<path d="M416.63 1126.93H404.63V1160.77H416.63V1126.93Z" fill="#285152"/>
<path d="M442.49 1126.93H430.49V1160.77H442.49V1126.93Z" fill="#285152"/>
<path d="M474.65 1073.57C474.65 1115.32 430.86 1145.97 376.84 1145.97C322.82 1145.97 279 1115.32 279 1073.57C279 1031.82 322.8 997.979 376.81 997.979C430.82 997.979 474.65 1031.82 474.65 1073.57Z" fill="white"/>
<path d="M442.68 1086C435 1089.23 424.48 1081.68 419.2 1069.14C418.32 1067.06 417.621 1064.9 417.11 1062.7C410.11 1068.7 403.27 1071.55 400.86 1069.14C398.09 1066.37 402.28 1057.69 410.22 1049.75C417.6 1042.38 425.62 1038.24 428.93 1039.93C435.6 1040.87 442.93 1047.62 447.04 1057.42C452.32 1069.93 450.37 1082.73 442.68 1086Z" fill="#285152"/>
<path d="M251 519.46L292.16 959.92C292.218 960.58 292.014 961.236 291.59 961.746C291.167 962.255 290.559 962.577 289.9 962.64H289.66C289.038 962.638 288.44 962.404 287.981 961.984C287.523 961.564 287.237 960.989 287.18 960.37L249.68 559.1V960.1C249.68 960.763 249.416 961.399 248.948 961.868C248.479 962.337 247.843 962.6 247.18 962.6C246.517 962.6 245.881 962.337 245.412 961.868C244.943 961.399 244.68 960.763 244.68 960.1V559.1L207.18 960.38C207.123 961.001 206.835 961.578 206.375 961.997C205.914 962.417 205.313 962.65 204.69 962.65H204.46C204.133 962.62 203.815 962.526 203.524 962.372C203.234 962.219 202.976 962.011 202.766 961.758C202.556 961.506 202.398 961.214 202.301 960.9C202.204 960.587 202.17 960.257 202.2 959.93L243.36 519.47L251 519.46Z" fill="#285152"/>
<path d="M261.58 517.63C252.146 520.257 242.174 520.257 232.74 517.63L241.74 481.42C245.25 482.66 249.079 482.66 252.59 481.42L261.58 517.63Z" fill="#C49400"/>
<path d="M261.58 414.19L252.58 450.4C249.07 449.16 245.24 449.16 241.73 450.4L232.73 414.19C242.164 411.563 252.136 411.563 261.57 414.19H261.58Z" fill="#C49400"/>
<path d="M231.65 471.33L195.44 480.33C192.827 470.918 192.827 460.972 195.44 451.56L231.44 461.19C230.981 462.721 230.748 464.311 230.75 465.91C230.735 467.755 231.04 469.588 231.65 471.33V471.33Z" fill="#C49400"/>
<path d="M300.85 465.91C300.842 470.785 300.169 475.636 298.85 480.33L262.64 471.33C263.783 468.058 263.863 464.509 262.87 461.19L298.87 451.56C300.174 456.232 300.84 461.059 300.85 465.91Z" fill="#C49400"/>
<path d="M240 451.09C236.647 452.718 233.938 455.426 232.31 458.78L200.31 439.54C205.131 431.013 212.183 423.961 220.71 419.14L240 451.09Z" fill="#C49400"/>
<path d="M293.93 492.29C289.117 500.814 282.067 507.862 273.54 512.67L254.31 480.72C257.65 479.09 260.35 476.39 261.98 473.05L293.93 492.29Z" fill="#C49400"/>
<path d="M240.05 480.74L220.82 512.74C212.307 507.938 205.262 500.911 200.44 492.41L232.7 473.76C234.358 476.799 236.929 479.241 240.05 480.74V480.74Z" fill="#C49400"/>
<path d="M294 439.559L262 458.799C260.49 455.68 258.042 453.11 255 451.449L273.64 419.189C282.151 424.003 289.19 431.046 294 439.559V439.559Z" fill="#C49400"/>
<path d="M247 476.22C244.919 476.22 242.885 475.602 241.154 474.446C239.424 473.29 238.076 471.646 237.28 469.723C236.484 467.8 236.276 465.685 236.683 463.644C237.09 461.603 238.092 459.728 239.565 458.257C241.037 456.787 242.912 455.785 244.954 455.381C246.995 454.976 249.111 455.186 251.033 455.983C252.955 456.781 254.597 458.131 255.752 459.862C256.907 461.594 257.522 463.629 257.52 465.71C257.517 468.498 256.408 471.171 254.435 473.142C252.463 475.113 249.788 476.22 247 476.22V476.22ZM247 460.22C245.908 460.22 244.841 460.543 243.933 461.15C243.025 461.757 242.318 462.619 241.9 463.627C241.482 464.636 241.373 465.746 241.586 466.817C241.799 467.887 242.325 468.871 243.097 469.643C243.869 470.415 244.852 470.941 245.923 471.154C246.994 471.367 248.104 471.257 249.112 470.84C250.121 470.422 250.983 469.714 251.59 468.806C252.196 467.899 252.52 466.831 252.52 465.74C252.523 465.013 252.382 464.292 252.106 463.62C251.83 462.947 251.424 462.336 250.911 461.82C250.398 461.305 249.789 460.895 249.118 460.615C248.447 460.336 247.727 460.191 247 460.19V460.22Z" fill="#285152"/>
<path d="M518.22 893.17V883.17H0V893.17H150.46V919.17H0V929.17H150.46V960.17H160.46V929.17H331.46V960.17H341.46V929.17H518.22V919.17H341.46V893.17H518.22ZM331.46 919.17H160.46V893.17H331.46V919.17Z" fill="white"/>
<path d="M1431.22 187.38H1413.22C1412.56 187.38 1411.92 187.116 1411.45 186.647C1410.98 186.178 1410.72 185.543 1410.72 184.88C1410.72 184.216 1410.98 183.581 1411.45 183.112C1411.92 182.643 1412.56 182.38 1413.22 182.38H1426L1419.8 174.8C1419.58 174.547 1419.41 174.253 1419.3 173.934C1419.2 173.614 1419.15 173.277 1419.18 172.942C1419.21 172.606 1419.3 172.28 1419.46 171.982C1419.62 171.684 1419.83 171.421 1420.09 171.208C1420.35 170.995 1420.65 170.837 1420.98 170.744C1421.3 170.65 1421.64 170.622 1421.97 170.663C1422.31 170.703 1422.63 170.81 1422.92 170.978C1423.21 171.146 1423.47 171.371 1423.67 171.64L1433.2 183.3C1433.5 183.664 1433.69 184.107 1433.75 184.576C1433.81 185.046 1433.73 185.522 1433.53 185.95C1433.32 186.384 1432.99 186.749 1432.58 187.002C1432.18 187.256 1431.7 187.387 1431.22 187.38V187.38Z" fill="white"/>
<path d="M1485.39 187.38H1467.39C1466.73 187.38 1466.09 187.116 1465.62 186.647C1465.15 186.178 1464.89 185.543 1464.89 184.88C1464.89 184.216 1465.15 183.581 1465.62 183.112C1466.09 182.643 1466.73 182.38 1467.39 182.38H1480.11L1473.91 174.8C1473.69 174.547 1473.52 174.253 1473.41 173.934C1473.31 173.614 1473.26 173.277 1473.29 172.942C1473.32 172.606 1473.41 172.28 1473.57 171.982C1473.73 171.684 1473.94 171.421 1474.2 171.208C1474.46 170.995 1474.76 170.837 1475.09 170.744C1475.41 170.65 1475.75 170.622 1476.08 170.663C1476.42 170.703 1476.74 170.81 1477.03 170.978C1477.32 171.146 1477.58 171.371 1477.78 171.64L1487.32 183.3C1487.62 183.666 1487.81 184.11 1487.86 184.58C1487.92 185.05 1487.84 185.526 1487.64 185.953C1487.44 186.38 1487.12 186.741 1486.72 186.994C1486.32 187.246 1485.85 187.38 1485.38 187.38H1485.39Z" fill="white"/>
<path d="M1556.56 188.44H1538.56C1537.9 188.44 1537.26 188.176 1536.79 187.707C1536.32 187.238 1536.06 186.603 1536.06 185.94C1536.06 185.276 1536.32 184.641 1536.79 184.172C1537.26 183.703 1537.9 183.44 1538.56 183.44H1551.29L1545.09 175.859C1544.7 175.343 1544.53 174.697 1544.6 174.055C1544.68 173.414 1545 172.827 1545.51 172.418C1546.01 172.009 1546.65 171.81 1547.29 171.863C1547.93 171.915 1548.53 172.215 1548.96 172.7L1558.5 184.359C1558.8 184.726 1558.99 185.17 1559.04 185.64C1559.1 186.11 1559.02 186.586 1558.82 187.013C1558.62 187.44 1558.3 187.801 1557.9 188.054C1557.5 188.306 1557.03 188.44 1556.56 188.44V188.44Z" fill="#B0DEE1"/>
<path d="M1520.44 142.77H1504.57C1503.91 142.77 1503.27 142.506 1502.8 142.038C1502.33 141.569 1502.07 140.933 1502.07 140.27C1502.07 139.607 1502.33 138.971 1502.8 138.502C1503.27 138.033 1503.91 137.77 1504.57 137.77H1515.17L1508.97 130.19C1508.55 129.677 1508.35 129.017 1508.42 128.357C1508.48 127.697 1508.81 127.09 1509.32 126.67C1509.83 126.249 1510.49 126.05 1511.15 126.116C1511.81 126.181 1512.42 126.507 1512.84 127.02L1522.38 138.68C1522.68 139.048 1522.87 139.492 1522.92 139.962C1522.98 140.432 1522.9 140.908 1522.7 141.336C1522.5 141.763 1522.18 142.125 1521.78 142.378C1521.38 142.632 1520.91 142.768 1520.44 142.77V142.77Z" fill="white"/>
<path d="M815.73 406.529C815.342 406.532 814.958 406.442 814.61 406.269C814.263 406.095 813.961 405.842 813.73 405.529L804.33 392.939C803.932 392.409 803.761 391.742 803.855 391.086C803.949 390.429 804.3 389.837 804.83 389.439C805.361 389.042 806.027 388.871 806.684 388.965C807.34 389.058 807.932 389.409 808.33 389.939L815.73 399.849L823.13 389.939C823.528 389.409 824.12 389.058 824.777 388.965C825.433 388.871 826.1 389.042 826.63 389.439C827.161 389.837 827.511 390.429 827.605 391.086C827.699 391.742 827.528 392.409 827.13 392.939L817.72 405.529C817.49 405.84 817.19 406.093 816.844 406.266C816.499 406.44 816.117 406.53 815.73 406.529V406.529Z" fill="#285152"/>
<path d="M691.29 301.61C690.902 301.61 690.519 301.519 690.172 301.346C689.825 301.172 689.523 300.92 689.29 300.61L679.89 288.02C679.492 287.489 679.322 286.822 679.415 286.166C679.509 285.51 679.86 284.917 680.39 284.52C680.921 284.122 681.587 283.951 682.244 284.045C682.9 284.138 683.492 284.489 683.89 285.02L691.29 294.93L698.69 285.02C699.088 284.489 699.68 284.138 700.337 284.045C700.993 283.951 701.66 284.122 702.19 284.52C702.72 284.917 703.071 285.51 703.165 286.166C703.259 286.822 703.088 287.489 702.69 288.02L693.29 300.61C693.057 300.92 692.755 301.172 692.408 301.346C692.061 301.519 691.678 301.61 691.29 301.61Z" fill="white"/>
<path d="M1189.17 1327.6C1431.05 1327.6 1627.14 1295.14 1627.14 1255.1C1627.14 1215.06 1431.05 1182.6 1189.17 1182.6C947.286 1182.6 751.2 1215.06 751.2 1255.1C751.2 1295.14 947.286 1327.6 1189.17 1327.6Z" fill="#285152"/>
<path d="M1627.14 1222.43V1255.1C1627.14 1215.1 1431.06 1182.61 1189.14 1182.61C947.93 1182.61 752.26 1214.88 751.19 1254.77C751.19 1254.61 751.19 1254.45 751.19 1254.29C751.19 1196.8 947.27 1118.29 1189.19 1118.29C1431.11 1118.29 1627.14 1164.93 1627.14 1222.43Z" fill="#C49400"/>
<path d="M1271.67 981.919C1271.01 981.919 1270.37 981.656 1269.9 981.187C1269.43 980.718 1269.17 980.082 1269.17 979.419V972.069C1269.17 971.406 1269.43 970.77 1269.9 970.302C1270.37 969.833 1271.01 969.569 1271.67 969.569C1272.33 969.569 1272.97 969.833 1273.44 970.302C1273.91 970.77 1274.17 971.406 1274.17 972.069V979.419C1274.17 980.082 1273.91 980.718 1273.44 981.187C1272.97 981.656 1272.33 981.919 1271.67 981.919V981.919Z" fill="#285152"/>
<path d="M1271.67 1187.87C1271.01 1187.87 1270.37 1187.61 1269.9 1187.14C1269.43 1186.67 1269.17 1186.03 1269.17 1185.37V1068.19C1269.17 1067.53 1269.43 1066.89 1269.9 1066.42C1270.37 1065.95 1271.01 1065.69 1271.67 1065.69C1272.33 1065.69 1272.97 1065.95 1273.44 1066.42C1273.91 1066.89 1274.17 1067.53 1274.17 1068.19V1185.37C1274.17 1186.03 1273.91 1186.67 1273.44 1187.14C1272.97 1187.61 1272.33 1187.87 1271.67 1187.87V1187.87Z" fill="#285152"/>
<path d="M1272.08 991.62H1271.25C1267.52 991.62 1264.49 994.647 1264.49 998.38V1049.2C1264.49 1052.93 1267.52 1055.96 1271.25 1055.96H1272.08C1275.81 1055.96 1278.84 1052.93 1278.84 1049.2V998.38C1278.84 994.647 1275.81 991.62 1272.08 991.62Z" fill="#DC5733"/>
<path d="M1244.32 859.22C1243.99 859.221 1243.67 859.157 1243.36 859.032C1243.06 858.907 1242.78 858.723 1242.55 858.491C1242.32 858.258 1242.13 857.982 1242.01 857.678C1241.88 857.374 1241.82 857.049 1241.82 856.72V849.38C1241.82 848.717 1242.08 848.081 1242.55 847.612C1243.02 847.143 1243.66 846.88 1244.32 846.88C1244.98 846.88 1245.62 847.143 1246.09 847.612C1246.56 848.081 1246.82 848.717 1246.82 849.38V856.72C1246.82 857.383 1246.56 858.019 1246.09 858.488C1245.62 858.957 1244.98 859.22 1244.32 859.22V859.22Z" fill="#285152"/>
<path d="M1244.32 1185.78C1243.99 1185.78 1243.67 1185.72 1243.36 1185.59C1243.06 1185.47 1242.78 1185.28 1242.55 1185.05C1242.32 1184.82 1242.13 1184.54 1242.01 1184.24C1241.88 1183.93 1241.82 1183.61 1241.82 1183.28V945.5C1241.82 944.837 1242.08 944.201 1242.55 943.732C1243.02 943.263 1243.66 943 1244.32 943C1244.98 943 1245.62 943.263 1246.09 943.732C1246.56 944.201 1246.82 944.837 1246.82 945.5V1183.28C1246.82 1183.94 1246.56 1184.58 1246.09 1185.05C1245.62 1185.52 1244.98 1185.78 1244.32 1185.78V1185.78Z" fill="#285152"/>
<path d="M1244.73 868.93H1243.9C1240.17 868.93 1237.14 871.956 1237.14 875.69V926.51C1237.14 930.243 1240.17 933.27 1243.9 933.27H1244.73C1248.46 933.27 1251.49 930.243 1251.49 926.51V875.69C1251.49 871.956 1248.46 868.93 1244.73 868.93Z" fill="#DC5733"/>
<path d="M895.56 1318.4C895.231 1318.4 894.906 1318.34 894.602 1318.21C894.298 1318.09 894.022 1317.9 893.789 1317.67C893.557 1317.44 893.373 1317.16 893.248 1316.86C893.122 1316.55 893.059 1316.23 893.06 1315.9V1264.84C893.06 1264.18 893.323 1263.54 893.792 1263.07C894.261 1262.6 894.897 1262.34 895.56 1262.34C896.223 1262.34 896.859 1262.6 897.328 1263.07C897.797 1263.54 898.06 1264.18 898.06 1264.84V1315.9C898.061 1316.23 897.998 1316.55 897.872 1316.86C897.747 1317.16 897.563 1317.44 897.331 1317.67C897.098 1317.9 896.822 1318.09 896.518 1318.21C896.214 1318.34 895.889 1318.4 895.56 1318.4Z" fill="#EEB200"/>
<path d="M911.44 1318.4C911.111 1318.4 910.786 1318.34 910.482 1318.21C910.178 1318.09 909.902 1317.9 909.669 1317.67C909.437 1317.44 909.253 1317.16 909.128 1316.86C909.002 1316.55 908.939 1316.23 908.94 1315.9V1283.63C908.94 1282.97 909.203 1282.33 909.672 1281.86C910.141 1281.39 910.777 1281.13 911.44 1281.13C912.103 1281.13 912.739 1281.39 913.208 1281.86C913.677 1282.33 913.94 1282.97 913.94 1283.63V1315.9C913.941 1316.23 913.878 1316.55 913.752 1316.86C913.627 1317.16 913.443 1317.44 913.211 1317.67C912.978 1317.9 912.702 1318.09 912.398 1318.21C912.094 1318.34 911.769 1318.4 911.44 1318.4Z" fill="#EEB200"/>
<path d="M1390.84 1330.1C1390.18 1330.1 1389.54 1329.84 1389.07 1329.37C1388.6 1328.9 1388.34 1328.26 1388.34 1327.6V1231.78C1388.34 1231.12 1388.6 1230.48 1389.07 1230.01C1389.54 1229.54 1390.18 1229.28 1390.84 1229.28C1391.5 1229.28 1392.14 1229.54 1392.61 1230.01C1393.08 1230.48 1393.34 1231.12 1393.34 1231.78V1327.6C1393.34 1328.26 1393.08 1328.9 1392.61 1329.37C1392.14 1329.84 1391.5 1330.1 1390.84 1330.1V1330.1Z" fill="#EEB200"/>
<path d="M1406.05 1330.1C1405.39 1330.1 1404.75 1329.84 1404.28 1329.37C1403.81 1328.9 1403.55 1328.26 1403.55 1327.6V1294.67C1403.55 1294.01 1403.81 1293.37 1404.28 1292.9C1404.75 1292.43 1405.39 1292.17 1406.05 1292.17C1406.71 1292.17 1407.35 1292.43 1407.82 1292.9C1408.29 1293.37 1408.55 1294.01 1408.55 1294.67V1327.6C1408.55 1328.26 1408.29 1328.9 1407.82 1329.37C1407.35 1329.84 1406.71 1330.1 1406.05 1330.1V1330.1Z" fill="#EEB200"/>
<path d="M1304.31 1338.14C1303.65 1338.14 1303.01 1337.88 1302.54 1337.41C1302.07 1336.94 1301.81 1336.3 1301.81 1335.64V1282.87C1301.81 1282.21 1302.07 1281.57 1302.54 1281.1C1303.01 1280.63 1303.65 1280.37 1304.31 1280.37C1304.97 1280.37 1305.61 1280.63 1306.08 1281.1C1306.55 1281.57 1306.81 1282.21 1306.81 1282.87V1335.64C1306.81 1336.3 1306.55 1336.94 1306.08 1337.41C1305.61 1337.88 1304.97 1338.14 1304.31 1338.14V1338.14Z" fill="#EEB200"/>
<path d="M1061.83 1234.3C1061.83 1246.16 1048.33 1255.78 1031.69 1255.78C1015.05 1255.78 1001.55 1246.16 1001.55 1234.3C1001.55 1222.69 1014.55 1213.22 1030.66 1212.84V1233.24L1047.76 1216.14C1056.21 1219.93 1061.83 1226.65 1061.83 1234.3Z" fill="#C49400"/>
<path d="M1517.36 1262.54C1517.36 1267.25 1513.42 1271.47 1507.19 1274.31L1488.19 1262.54V1278.08C1472.05 1278.08 1458.97 1271.08 1458.97 1262.54C1458.97 1254 1472 1247 1488.14 1247C1504.28 1247 1517.36 1254 1517.36 1262.54Z" fill="#C49400"/>
<path d="M1860 1117.97H1396.72V1147H1860V1117.97Z" fill="#B0DEE1"/>
<path d="M1396.71 1117.97H1150.94V1146.99H1396.71V1117.97Z" fill="white"/>
<path d="M1213.23 1147H1180.28V1214.14H1213.23V1147Z" fill="white"/>
<path d="M1180.28 1147H1213.23V1167.32L1180.28 1160.91V1147Z" fill="#B0DEE1"/>
<path d="M1225.12 1210.57H1170.83V1215.57H1225.12V1210.57Z" fill="#00AAB1"/>
<path d="M1472.11 1147H1439.16V1214.14H1472.11V1147Z" fill="white"/>
<path d="M1439.16 1147H1472.11V1172.63L1439.16 1166.22V1147Z" fill="#B0DEE1"/>
<path d="M1480.06 1211.63H1431.78V1216.63H1480.06V1211.63Z" fill="#00AAB1"/>
<path d="M1803.11 1147H1770.16V1248.02H1803.11V1147Z" fill="white"/>
<path d="M1770.16 1147H1803.11V1172.63L1770.16 1166.22V1147Z" fill="#B0DEE1"/>
<path d="M1860 1270.9V1283.92L1770.17 1248.01H1802.75L1860 1270.9Z" fill="#C49400"/>
<path d="M792.16 1061.18C791.497 1061.18 790.861 1060.92 790.392 1060.45C789.923 1059.98 789.66 1059.34 789.66 1058.68V1051.33C789.66 1050.67 789.923 1050.03 790.392 1049.56C790.861 1049.09 791.497 1048.83 792.16 1048.83C792.823 1048.83 793.459 1049.09 793.928 1049.56C794.397 1050.03 794.66 1050.67 794.66 1051.33V1058.68C794.66 1059.34 794.397 1059.98 793.928 1060.45C793.459 1060.92 792.823 1061.18 792.16 1061.18V1061.18Z" fill="#285152"/>
<path d="M792.16 1229.12C791.497 1229.12 790.861 1228.86 790.392 1228.39C789.923 1227.92 789.66 1227.28 789.66 1226.62V1147.45C789.66 1146.79 789.923 1146.15 790.392 1145.68C790.861 1145.21 791.497 1144.95 792.16 1144.95C792.823 1144.95 793.459 1145.21 793.928 1145.68C794.397 1146.15 794.66 1146.79 794.66 1147.45V1226.62C794.66 1227.28 794.397 1227.92 793.928 1228.39C793.459 1228.86 792.823 1229.12 792.16 1229.12V1229.12Z" fill="#285152"/>
<path d="M792.58 1070.88H791.75C788.017 1070.88 784.99 1073.91 784.99 1077.64V1128.46C784.99 1132.19 788.017 1135.22 791.75 1135.22H792.58C796.314 1135.22 799.34 1132.19 799.34 1128.46V1077.64C799.34 1073.91 796.314 1070.88 792.58 1070.88Z" fill="#DC5733"/>
<path d="M753.33 1257.6C753.001 1257.6 752.676 1257.54 752.372 1257.41C752.068 1257.29 751.792 1257.1 751.559 1256.87C751.327 1256.64 751.143 1256.36 751.018 1256.06C750.893 1255.75 750.829 1255.43 750.83 1255.1V1177.1C750.83 1176.44 751.094 1175.8 751.562 1175.33C752.031 1174.86 752.667 1174.6 753.33 1174.6C753.993 1174.6 754.629 1174.86 755.098 1175.33C755.567 1175.8 755.83 1176.44 755.83 1177.1V1255.1C755.83 1255.76 755.567 1256.4 755.098 1256.87C754.629 1257.34 753.993 1257.6 753.33 1257.6Z" fill="#285152"/>
<path d="M1575.17 759.9C1574.51 759.9 1573.87 759.636 1573.4 759.167C1572.93 758.699 1572.67 758.063 1572.67 757.4V750.05C1572.67 749.387 1572.93 748.751 1573.4 748.282C1573.87 747.813 1574.51 747.55 1575.17 747.55C1575.83 747.55 1576.47 747.813 1576.94 748.282C1577.41 748.751 1577.67 749.387 1577.67 750.05V757.4C1577.67 758.063 1577.41 758.699 1576.94 759.167C1576.47 759.636 1575.83 759.9 1575.17 759.9V759.9Z" fill="#285152"/>
<path d="M1575.17 1282.3C1574.51 1282.3 1573.87 1282.04 1573.4 1281.57C1572.93 1281.1 1572.67 1280.46 1572.67 1279.8V842.5C1572.67 841.837 1572.93 841.201 1573.4 840.732C1573.87 840.263 1574.51 840 1575.17 840C1575.83 840 1576.47 840.263 1576.94 840.732C1577.41 841.201 1577.67 841.837 1577.67 842.5V1279.8C1577.67 1280.46 1577.41 1281.1 1576.94 1281.57C1576.47 1282.04 1575.83 1282.3 1575.17 1282.3V1282.3Z" fill="#285152"/>
<path d="M1575.59 767.81H1574.76C1571.03 767.81 1568 770.836 1568 774.569V825.39C1568 829.123 1571.03 832.15 1574.76 832.15H1575.59C1579.32 832.15 1582.35 829.123 1582.35 825.39V774.569C1582.35 770.836 1579.32 767.81 1575.59 767.81Z" fill="#DC5733"/>
<path d="M1624.23 851.28C1623.9 851.281 1623.58 851.217 1623.27 851.092C1622.97 850.967 1622.69 850.783 1622.46 850.55C1622.23 850.318 1622.04 850.042 1621.92 849.738C1621.79 849.434 1621.73 849.108 1621.73 848.78V841.43C1621.73 840.767 1621.99 840.131 1622.46 839.662C1622.93 839.193 1623.57 838.93 1624.23 838.93C1624.89 838.93 1625.53 839.193 1626 839.662C1626.47 840.131 1626.73 840.767 1626.73 841.43V848.78C1626.73 849.443 1626.47 850.079 1626 850.547C1625.53 851.016 1624.89 851.28 1624.23 851.28Z" fill="#285152"/>
<path d="M1624.23 1260.51C1623.9 1260.51 1623.58 1260.45 1623.27 1260.32C1622.97 1260.2 1622.69 1260.01 1622.46 1259.78C1622.23 1259.55 1622.04 1259.27 1621.92 1258.97C1621.79 1258.66 1621.73 1258.34 1621.73 1258.01V937.56C1621.73 936.897 1621.99 936.261 1622.46 935.792C1622.93 935.323 1623.57 935.06 1624.23 935.06C1624.89 935.06 1625.53 935.323 1626 935.792C1626.47 936.261 1626.73 936.897 1626.73 937.56V1258C1626.73 1258.33 1626.67 1258.66 1626.55 1258.96C1626.42 1259.27 1626.24 1259.54 1626 1259.78C1625.77 1260.01 1625.5 1260.2 1625.19 1260.32C1624.89 1260.45 1624.56 1260.51 1624.23 1260.51V1260.51Z" fill="#285152"/>
<path d="M1624.64 860.99H1623.81C1620.08 860.99 1617.05 864.017 1617.05 867.75V918.57C1617.05 922.304 1620.08 925.33 1623.81 925.33H1624.64C1628.37 925.33 1631.4 922.304 1631.4 918.57V867.75C1631.4 864.017 1628.37 860.99 1624.64 860.99Z" fill="#DC5733"/>
</svg>
