<svg width="164" height="197" viewBox="0 0 164 197" fill="none" xmlns="http://www.w3.org/2000/svg">
<path d="M8.42409 161.526C2.22309 165.859 -0.613912 175.108 1.81809 183.252C4.24409 191.372 11.1831 196.221 20.3801 196.223C20.3821 196.223 20.3831 196.223 20.3831 196.223C21.4041 196.223 22.4681 196.162 23.5451 196.044C57.8331 192.282 89.7311 178.088 115.791 154.997C139.988 133.557 156.576 106.536 162.504 78.9029C165.412 65.2649 159.996 53.1739 147.254 44.8359C146.124 44.0329 141.163 40.6849 134.022 38.1899L155.507 12.2889C158.152 9.10092 157.711 4.37292 154.523 1.72792C151.337 -0.915081 146.608 -0.477081 143.962 2.71192L117.207 34.9659C113.09 34.5549 108.973 34.4619 105.004 34.6989C66.5541 37.0359 62.4091 56.9019 57.6111 79.9039C52.9061 102.472 47.0511 130.546 8.42409 161.526ZM72.2961 82.9679C76.7301 61.7149 78.7121 52.2929 102.007 49.9869L95.0741 56.5619C92.0681 59.4129 91.9431 64.1599 94.7931 67.1649C96.2691 68.7199 98.2511 69.5039 100.236 69.5039C102.09 69.5039 103.947 68.8209 105.396 67.4449L109.012 64.0149L107.827 70.7189C107.106 74.7979 109.829 78.6889 113.908 79.4099C114.349 79.4879 114.788 79.5249 115.221 79.5249C118.791 79.5249 121.955 76.9659 122.598 73.3289L123.54 67.9889L126.26 73.9549C127.52 76.7159 130.242 78.3459 133.09 78.3459C134.13 78.3459 135.188 78.1279 136.196 77.6679C139.966 75.9489 141.627 71.5009 139.909 67.7319L133.789 54.3109C136.72 55.7469 138.518 57.0299 138.543 57.0489C138.67 57.1419 138.799 57.2319 138.931 57.3179C150.207 64.6339 148.42 73.0199 147.834 75.7659C138.085 121.217 90.6381 173.592 21.9071 181.134C21.3711 181.193 20.8581 181.223 20.3821 181.223H20.3811C17.0151 181.222 16.5141 179.867 16.2741 179.214C15.4581 177.002 16.4201 174.334 16.9991 173.832C17.1961 173.703 17.3861 173.565 17.5691 173.419C60.6091 138.998 67.3651 106.614 72.2961 82.9679Z" fill="#FF0044"/>
</svg>
