<svg width="224" height="223" viewBox="0 0 224 223" fill="none" xmlns="http://www.w3.org/2000/svg">
<path d="M129.625 9.45519C129.115 9.54097 128.639 9.76778 128.251 10.1098C127.864 10.4518 127.58 10.8953 127.434 11.3897C126.806 13.807 129.951 15.8497 132.138 14.2631C134.693 12.3977 132.608 8.95455 129.625 9.45519V9.45519ZM131.714 13.3053C130.415 14.5061 128.13 13.341 128.389 11.7766C128.458 11.4561 128.619 11.1623 128.852 10.9305C129.085 10.6987 129.38 10.5387 129.702 10.4698C131.396 10.035 133.199 11.9305 131.712 13.3053H131.714Z" fill="#1D1D1B"/>
<path d="M130.23 11.4343C130.111 11.4343 129.994 11.4696 129.894 11.5358C129.795 11.602 129.717 11.696 129.671 11.806C129.626 11.916 129.614 12.0371 129.637 12.1539C129.66 12.2707 129.718 12.378 129.803 12.4622C129.887 12.5464 129.995 12.6037 130.112 12.627C130.23 12.6502 130.351 12.6383 130.462 12.5927C130.572 12.5471 130.667 12.47 130.733 12.3709C130.8 12.2719 130.835 12.1555 130.835 12.0364C130.835 11.9573 130.82 11.879 130.789 11.8058C130.759 11.7327 130.714 11.6663 130.658 11.6104C130.602 11.5544 130.535 11.5101 130.462 11.4799C130.388 11.4497 130.31 11.4342 130.23 11.4343V11.4343Z" fill="#1D1D1B"/>
<path d="M121.013 59.4931C120.355 59.4064 119.687 59.5221 119.098 59.8245C118.509 60.1268 118.027 60.6014 117.716 61.1846C117.406 61.7677 117.282 62.4314 117.362 63.0866C117.441 63.7418 117.72 64.357 118.161 64.8497C118.602 65.3424 119.184 65.689 119.829 65.8429C120.473 65.9968 121.15 65.9507 121.767 65.7107C122.385 65.4707 122.914 65.0484 123.283 64.5004C123.653 63.9524 123.845 63.305 123.834 62.6452C123.87 61.857 123.596 61.086 123.068 60.4969C122.541 59.9079 121.803 59.5476 121.013 59.4931V59.4931Z" fill="#86F2AA"/>
<path d="M181.448 62.886C181.615 63.6264 181.238 63.6553 180.346 64.1671C178.31 65.3312 178.274 65.4315 178.034 65.271C177.794 65.1104 177.549 64.9476 177.307 64.7882V65.9812C177.307 66.0821 177.267 66.1788 177.195 66.2501C177.124 66.3214 177.027 66.3614 176.925 66.3614C176.824 66.3614 176.727 66.3214 176.655 66.2501C176.584 66.1788 176.543 66.0821 176.543 65.9812V64.0857C176.544 64.0191 176.562 63.9538 176.595 63.8961C176.629 63.8385 176.676 63.7904 176.734 63.7567C176.792 63.723 176.857 63.7048 176.924 63.7038C176.991 63.7029 177.057 63.7192 177.116 63.7512C177.492 63.9988 177.86 64.2463 178.236 64.4938C179.05 64.0244 179.86 63.5617 180.675 63.0923C180.601 62.7361 180.424 62.4095 180.164 62.1534C179.999 61.9815 179.82 61.8224 179.63 61.6773C179.545 61.6213 179.486 61.5342 179.465 61.4349C179.444 61.3355 179.463 61.2319 179.518 61.1466C179.019 61.6842 178.411 62.1103 177.735 62.3968C177.058 62.6834 176.328 62.8239 175.593 62.809C174.858 62.7942 174.134 62.6243 173.47 62.3106C172.805 61.997 172.215 61.5467 171.739 60.9894C171.692 61.0251 171.646 61.0623 171.601 61.1009C171.611 61.1706 171.601 61.2418 171.571 61.3059C171.542 61.37 171.495 61.4242 171.435 61.4621C170.923 61.7855 170.551 62.2878 170.391 62.8704L172.832 64.2719L173.952 63.5294C174.01 63.4957 174.077 63.4781 174.144 63.4783C174.212 63.4784 174.278 63.4964 174.337 63.5304C174.395 63.5644 174.443 63.6131 174.477 63.6717C174.51 63.7303 174.527 63.7966 174.526 63.8638V65.7594C174.521 65.8568 174.478 65.9485 174.407 66.0156C174.336 66.0827 174.242 66.1201 174.144 66.1201C174.046 66.1201 173.951 66.0827 173.88 66.0156C173.809 65.9485 173.767 65.8568 173.761 65.7594V64.5663C173.066 65.0223 172.934 65.2085 172.641 65.0491C169.848 63.4602 169.736 63.4647 169.634 63.2216C169.3 63.7075 168.998 64.214 168.729 64.738C169.596 65.7126 170.661 66.4931 171.853 67.028C173.045 67.5629 174.337 67.8401 175.645 67.8413C176.952 67.8424 178.245 67.5675 179.438 67.0347C180.631 66.5019 181.697 65.7233 182.566 64.7503C182.287 64.0775 181.91 63.4493 181.448 62.886V62.886Z" fill="#FEE253"/>
<path d="M130.172 118.997L164.637 119.438C164.973 119.441 165.306 119.37 165.611 119.229C165.916 119.089 166.186 118.883 166.402 118.626L176.409 106.614C176.672 106.294 176.842 105.908 176.899 105.498C176.956 105.089 176.898 104.671 176.732 104.292C176.566 103.913 176.298 103.587 175.957 103.35C175.617 103.113 175.218 102.974 174.803 102.948L139.057 100.718L130.172 118.997ZM91.0067 98.8793C94.7534 103.073 98.0402 107.653 100.811 112.54C101.376 113.388 101.82 114.31 102.129 115.28C102.205 115.244 102.29 115.233 102.372 115.249C108.297 110.454 116.582 102.82 124.388 102.698C124.339 102.626 124.313 102.54 124.315 102.453C124.316 102.366 124.344 102.281 124.395 102.21C124.942 101.373 125.592 100.608 126.332 99.933L93.0272 97.8558C92.6299 97.8357 92.2343 97.9197 91.8798 98.0993C91.5253 98.2789 91.2243 98.5478 91.0067 98.8793V98.8793Z" fill="#FDE992"/>
<path d="M134.416 62.9908C134.455 62.2019 134.181 61.4292 133.653 60.8396C133.125 60.2499 132.385 59.8904 131.593 59.8387C130.936 59.7524 130.268 59.8682 129.679 60.1707C129.09 60.4733 128.608 60.948 128.298 61.5312C127.988 62.1144 127.864 62.7781 127.944 63.4332C128.023 64.0883 128.303 64.7034 128.744 65.196C129.185 65.6886 129.767 66.0351 130.411 66.1889C131.056 66.3427 131.732 66.2964 132.35 66.0564C132.967 65.8163 133.496 65.394 133.865 64.846C134.235 64.298 134.427 63.6506 134.416 62.9908V62.9908ZM68.2237 83.1389C63.7997 78.3845 51.9568 75.374 40.6078 79.4036C40.995 80.5753 41.4136 81.7365 41.8634 82.8858C48.3123 78.787 60.8955 80.5911 68.2237 83.1389V83.1389Z" fill="#FEE253"/>
<path d="M127.792 104.241C120.012 101.365 109.676 110.58 103.712 115.474C104.33 115.685 104.896 116.025 105.372 116.471C105.848 116.917 106.222 117.459 106.471 118.061C106.532 118.176 106.546 118.311 106.51 118.437C106.474 118.563 106.39 118.67 106.276 118.735C106.162 118.801 106.028 118.82 105.9 118.789C105.772 118.758 105.662 118.679 105.591 118.568C105.405 118.324 105.34 118.278 105.355 118.048C105.307 117.946 105.249 117.849 105.184 117.757C104.924 117.38 104.591 117.057 104.205 116.808C103.819 116.559 103.387 116.389 102.935 116.308C104.167 117.467 104.493 119.406 104.584 121.085C104.623 121.737 103.603 121.73 103.565 121.085C103.638 119.515 103.084 117.98 102.024 116.815C101.94 116.876 101.839 116.91 101.735 116.913C101.631 116.915 101.529 116.885 101.442 116.828C101.355 116.771 101.288 116.688 101.25 116.592C101.212 116.496 101.204 116.39 101.228 116.289C101.228 116.289 101.247 116.119 101.247 115.998C101.205 115.939 101.179 115.87 101.17 115.799C101.161 115.727 101.17 115.654 101.195 115.586C100.999 114.941 100.71 114.328 100.335 113.766C92.9118 100.478 81.8552 88.7451 66.948 83.8C60.4217 81.6916 49.8613 80.0849 43.4862 83.14C41.1818 84.223 39.3151 86.053 38.192 88.3303C46.728 89.7649 54.7898 93.2304 61.6918 98.4322C76.5027 109.417 77.6821 128.518 81.0073 145.02C82.9113 154.475 84.4547 172.531 92.0785 179.876C94.0955 179.436 95.8965 178.313 97.1745 176.698C96.8117 176.616 96.544 176.172 96.908 175.875C98.4872 174.539 99.638 172.771 100.218 170.79C100.798 168.809 100.781 166.703 100.169 164.731C99.9656 164.11 100.953 163.839 101.151 164.458C101.477 165.489 101.649 166.562 101.66 167.642C102.045 165.837 102.108 163.978 101.845 162.151C99.1301 156.146 103.244 151.488 109.228 148.755C108.706 146.482 107.491 144.424 105.749 142.864C99.913 144.696 93.6173 144.44 87.9502 142.141C86.8616 141.743 85.8091 141.253 84.8041 140.676C84.6902 140.607 84.6081 140.496 84.5755 140.367C84.543 140.238 84.5626 140.101 84.6301 139.987C84.6976 139.872 84.8076 139.788 84.9365 139.754C85.0655 139.719 85.2029 139.736 85.3193 139.801C85.8075 140.082 86.3095 140.338 86.8235 140.568C92.4694 143.245 98.9025 143.777 104.915 142.065C114.342 139.093 130.729 128.436 133.398 118.473C135.231 111.091 132.131 105.845 127.792 104.241V104.241Z" fill="#FEE253"/>
<path d="M180.868 55.2884C180.866 55.2107 180.846 55.1344 180.811 55.0654C180.33 54.1431 179.608 53.3677 178.72 52.8215C177.833 52.2752 176.813 51.9785 175.77 51.963C174.726 51.9474 173.698 52.2136 172.794 52.7331C171.891 53.2527 171.145 54.0062 170.638 54.9137C169.574 55.4601 169.247 58.6847 170.216 58.8519C170.995 58.9991 171.764 56.8627 171.436 55.5259C172.036 54.4988 172.965 53.7015 174.074 53.2613C175.167 52.8881 176.359 52.9162 177.434 53.3407C178.508 53.7651 179.395 54.5579 179.935 55.576C179.952 55.6027 179.971 55.628 179.992 55.6519C179.826 56.2301 179.805 56.8403 179.933 57.4283C180.06 58.0163 180.331 58.5639 180.722 59.0225C181.915 59.9078 182.071 56.2818 180.868 55.2884V55.2884Z" fill="#AC47F5"/>
<path d="M160.311 28.0534C160.26 28.0815 160.204 28.0978 160.146 28.1012C160.088 28.1047 160.03 28.095 159.976 28.0731C159.922 28.0511 159.874 28.0174 159.835 27.9744C159.796 27.9315 159.768 27.8803 159.751 27.8248C159.539 26.5744 158.891 25.4384 157.921 24.6163C156.952 23.7942 155.722 23.3387 154.448 23.3296C153.174 23.3206 151.938 23.7586 150.957 24.5668C149.975 25.375 149.311 26.5017 149.081 27.749C149.053 27.8458 148.988 27.9278 148.9 27.9776C148.812 28.0274 148.707 28.041 148.609 28.0155C148.487 27.978 148.358 27.9683 148.232 27.9872C148.105 28.006 147.985 28.053 147.879 28.1245C147.773 28.196 147.685 28.2902 147.62 28.4003C147.556 28.5103 147.517 28.6334 147.507 28.7603C147.499 28.8949 147.523 29.0296 147.578 29.1526C147.634 29.2757 147.718 29.3835 147.825 29.4665C147.932 29.5496 148.057 29.6055 148.191 29.6293C148.324 29.6531 148.461 29.6442 148.59 29.6032C148.688 29.578 148.792 29.5917 148.88 29.6415C148.968 29.6912 149.033 29.773 149.062 29.8697C150.321 35.6198 158.546 35.2842 159.746 29.8006C159.759 29.7522 159.782 29.707 159.813 29.6674C159.844 29.6278 159.882 29.5947 159.926 29.57C159.97 29.5452 160.018 29.5293 160.068 29.5232C160.118 29.517 160.169 29.5207 160.217 29.5341C160.323 29.5901 160.438 29.6248 160.557 29.6363C160.676 29.6477 160.797 29.6357 160.911 29.6009C161.025 29.5661 161.132 29.5092 161.224 29.4335C161.317 29.3577 161.393 29.2646 161.449 29.1595C161.516 29.002 161.533 28.8283 161.499 28.6608C161.465 28.4934 161.381 28.34 161.259 28.2206C161.136 28.1013 160.98 28.0215 160.811 27.9917C160.642 27.9618 160.468 27.9833 160.311 28.0534V28.0534Z" fill="#9B6868"/>
<path d="M144.299 62.9908C144.338 62.2019 144.064 61.4292 143.536 60.8396C143.008 60.2499 142.268 59.8904 141.476 59.8387C140.819 59.7524 140.151 59.8682 139.562 60.1707C138.973 60.4733 138.491 60.948 138.181 61.5312C137.87 62.1144 137.747 62.7781 137.827 63.4332C137.906 64.0883 138.185 64.7034 138.626 65.196C139.068 65.6886 139.649 66.0351 140.294 66.1889C140.939 66.3427 141.615 66.2964 142.233 66.0564C142.85 65.8163 143.379 65.394 143.748 64.846C144.117 64.298 144.31 63.6507 144.299 62.9908V62.9908Z" fill="#F76559"/>
<path d="M42.7078 72.4304C42.5174 73.105 42.4838 72.0725 42.7963 77.6709C43.7649 77.4116 44.7448 77.1958 45.733 77.0242C44.1851 75.9214 43.1063 74.2833 42.7078 72.4304ZM71.7819 38.482C71.1687 37.7477 70.5159 37.0472 69.8264 36.3835C67.8642 39.7219 64.1334 40.7555 63.7997 44.241C63.8355 44.3525 64.5546 46.6638 64.6856 47.2726C71.3563 49.7189 72.6488 59.6001 67.2526 63.7044C65.7629 64.8143 63.961 65.4309 62.1006 65.4672C63.1971 66.2756 63.177 67.6258 62.795 68.936C62.541 69.9634 62.0743 70.9267 61.425 71.7644C60.7757 72.602 59.9579 73.2956 59.024 73.8007C58.0754 74.278 56.9932 74.4242 55.9511 74.2159C54.909 74.0077 53.9674 73.457 53.2773 72.6523C53.4551 73.339 53.4424 74.0609 53.2407 74.7411C53.0389 75.4213 52.6556 76.0342 52.1315 76.5146C57.3117 76.5009 62.3929 77.9266 66.8035 80.6312C66.631 78.9375 66.4675 77.2505 66.2939 75.5568C66.3958 76.5916 75.0086 71.5428 75.7019 70.8448C78.0698 68.3674 79.6171 65.2263 80.1349 61.8457C81.5416 53.4085 77.0795 44.8085 71.7819 38.482V38.482ZM134.736 116.977C137.153 115.163 138.853 112.561 139.54 109.627C139.565 109.542 139.611 109.465 139.675 109.403C139.738 109.342 139.817 109.298 139.902 109.275C139.988 109.253 140.078 109.253 140.164 109.275C140.25 109.298 140.328 109.342 140.392 109.404C140.867 109.927 141.508 110.274 142.208 110.386C142.466 110.372 142.714 110.279 142.917 110.12C143.12 109.96 143.269 109.741 143.342 109.494C143.845 108.201 142.839 106.944 142.081 105.993C141.103 105.361 139.933 105.089 138.775 105.226C138.646 105.256 138.511 105.236 138.398 105.169C138.284 105.103 138.201 104.995 138.166 104.868C138.13 104.742 138.146 104.607 138.208 104.491C138.271 104.376 138.376 104.289 138.501 104.249C139.973 104.022 141.476 104.362 142.705 105.2C143.558 105.535 144.789 105.91 145.208 104.813C145.309 104.325 145.279 103.819 145.119 103.346C144.959 102.874 144.675 102.452 144.297 102.125C143.897 101.657 143.46 101.22 142.992 100.818C142.212 100.484 141.373 100.31 140.524 100.308C139.676 100.306 138.835 100.475 138.055 100.806C137.938 100.869 137.801 100.886 137.673 100.853C137.544 100.82 137.433 100.739 137.361 100.628C137.292 100.512 137.272 100.373 137.305 100.243C137.338 100.112 137.422 100 137.538 99.9307C138.592 99.4698 139.741 99.2613 140.89 99.322C138.348 97.7799 135.307 97.2727 132.399 97.9056C129.49 98.5386 126.939 100.263 125.275 102.72C131.401 103.101 135.993 108.816 134.736 116.977V116.977Z" fill="#FFCEB6"/>
<path d="M134.217 187.08C131.944 187.08 131.224 189.94 130.835 191.684C130.51 193.171 130.243 194.667 130.032 196.174C133.057 194.52 135.929 192.602 138.613 190.442C137.639 188.96 135.999 187.08 134.217 187.08V187.08ZM87.3477 195.772C86.9843 195.187 86.481 194.701 85.8827 194.358C85.5549 194.205 85.1967 194.128 84.8348 194.132C84.4729 194.137 84.1167 194.223 83.7928 194.384C82.4923 195.107 81.4452 196.208 80.7923 197.541C79.1837 200.773 78.2621 204.301 78.0853 207.904C82.4471 208.228 86.827 208.232 91.1893 207.914C90.977 206.497 90.6918 205.091 90.3347 203.703C89.6437 200.988 88.9896 198.101 87.3477 195.772V195.772Z" fill="#FF8684"/>
<path d="M146.188 174.422C144.723 172.206 142.066 172.007 139.429 172.456C128.541 174.302 118.942 181.29 107.819 183.206C102.996 184.036 97.6203 184.132 93.6701 181.253C84.6182 174.689 83.1174 155.512 81.0062 145.034C77.6866 128.532 76.5016 109.429 61.6907 98.4456C52.0453 91.2962 39.2224 86.4939 27.132 88.26C22.3406 88.9647 17.5638 90.8245 14.2576 94.3491C3.0576 106.28 7.04592 131.479 10.5045 145.807C14.3203 161.605 21.5253 177.321 33.1139 188.989C34.3784 186.61 36.5142 185.935 37.9994 186.459C39.4397 186.967 40.0064 188.418 40.5227 189.718C41.464 192.107 42.2496 194.554 42.8747 197.044C46.8698 199.697 51.1921 201.825 55.7346 203.376C62.6442 205.714 69.8136 207.208 77.0851 207.825C78.0685 195.528 84.2934 189.478 88.3288 195.414C90.0301 197.926 90.6987 201.008 91.4502 203.899C91.7747 205.198 92.0245 206.514 92.1984 207.84C99.6942 207.211 107.077 205.621 114.164 203.11C119.238 201.363 124.176 199.246 128.937 196.774C129.064 195.761 129.211 194.751 129.385 193.749C129.798 191.467 130.281 188.274 132.092 186.836C132.558 186.467 133.112 186.223 133.701 186.129C134.289 186.035 134.892 186.093 135.452 186.298C137.096 187.028 138.471 188.249 139.388 189.792C141.777 187.636 145.517 183.19 146.612 179.199C146.619 177.597 146.477 175.998 146.188 174.422V174.422Z" fill="#FF8684"/>
<path d="M37.0317 187.302C36.3276 187.365 35.6566 187.628 35.0986 188.06C34.5405 188.492 34.1191 189.075 33.8845 189.738C36.269 192.089 38.8474 194.235 41.5923 196.156C41.024 194.061 40.3393 191.999 39.5416 189.979C39.088 188.824 38.528 187.32 37.0317 187.302Z" fill="#FF8684"/>
<path d="M179.992 55.6463C179.764 55.2517 179.493 54.8837 179.183 54.5491C178.558 53.8513 177.737 53.3553 176.827 53.1249C175.917 52.8944 174.958 52.94 174.074 53.2557C172.958 53.6836 172.025 54.484 171.436 55.5203C171.559 56.0798 171.548 56.66 171.406 57.2148C171.263 57.7696 170.992 58.2836 170.615 58.7159C170.858 59.85 171.476 60.8701 172.37 61.6125C173.265 62.3549 174.384 62.7767 175.548 62.81C176.712 62.8433 177.854 62.4862 178.79 61.7962C179.725 61.1061 180.401 60.123 180.709 59.0047C180.323 58.5459 180.055 57.9998 179.93 57.4143C179.805 56.8288 179.827 56.2218 179.992 55.6463V55.6463Z" fill="#FFCEB6"/>
<path d="M106.822 35.0043C106.363 35.1652 105.86 35.1469 105.414 34.953C102.906 38.7652 103.049 38.3036 103.299 38.7518C104.142 40.225 105.034 41.6697 105.974 43.0836C106.817 41.3252 108.522 38.6626 108.522 38.4352C108.518 38.3225 108.64 38.6805 106.822 35.0043ZM106.163 34.0911C106.361 34.0915 106.557 34.0471 106.735 33.9614C106.914 33.8756 107.071 33.7507 107.194 33.5961C106.567 33.6712 105.933 33.6603 105.309 33.5637C105.402 33.7105 105.527 33.8343 105.675 33.9257C105.822 34.0171 105.989 34.0737 106.163 34.0911V34.0911Z" fill="#F76559"/>
<path d="M100.602 28.1961C100.732 28.1621 100.87 28.1803 100.986 28.2466C101.103 28.3128 101.189 28.4221 101.226 28.5507C102.445 34.1079 110.484 33.9027 111.666 28.4838C111.703 28.3549 111.789 28.2455 111.906 28.1792C112.023 28.1129 112.161 28.0949 112.291 28.1292C112.475 28.2299 112.691 28.2544 112.892 28.1974C113.094 28.1404 113.265 28.0065 113.368 27.8248C113.424 27.6918 113.439 27.545 113.411 27.4033C113.384 27.2615 113.314 27.1313 113.211 27.0291C113.109 26.927 112.978 26.8577 112.836 26.83C112.693 26.8023 112.546 26.8175 112.412 26.8737C112.345 26.9118 112.269 26.9341 112.192 26.9389C112.114 26.9438 112.037 26.9311 111.965 26.9018C111.893 26.8725 111.829 26.8273 111.777 26.7698C111.725 26.7122 111.688 26.6436 111.666 26.5693C110.169 20.6041 102.563 20.8159 101.257 26.4489C101.257 26.4612 101.257 26.4735 101.245 26.4924C101.208 26.6213 101.122 26.7307 101.006 26.7972C100.889 26.8638 100.751 26.882 100.621 26.8481C100.515 26.8152 100.404 26.8066 100.295 26.823C100.186 26.8394 100.082 26.8803 99.991 26.9426C99.9001 27.005 99.8246 27.0871 99.7704 27.1827C99.7161 27.2784 99.6844 27.3851 99.6778 27.4948C99.6723 27.6085 99.6946 27.7218 99.7429 27.8249C99.7911 27.9281 99.8638 28.018 99.9547 28.087C100.046 28.156 100.152 28.202 100.265 28.221C100.377 28.24 100.493 28.2315 100.602 28.1961V28.1961Z" fill="#FFCEB6"/>
<path d="M74.5147 49.5294C75.257 49.5294 75.8587 48.9304 75.8587 48.1914C75.8587 47.4524 75.257 46.8534 74.5147 46.8534C73.7724 46.8534 73.1707 47.4524 73.1707 48.1914C73.1707 48.9304 73.7724 49.5294 74.5147 49.5294Z" fill="#1D1D1B"/>
<path d="M70.8579 41.6151C70.9499 41.5183 71.0012 41.39 71.0012 41.2567C71.0012 41.1233 70.9499 40.9951 70.8579 40.8982C70.7619 40.804 70.6326 40.7512 70.4978 40.7512C70.3631 40.7512 70.2337 40.804 70.1378 40.8982C69.1021 42.0751 68.5161 43.5776 68.4824 45.1419C68.4459 45.4033 68.4787 45.6697 68.5776 45.9146C68.6146 45.9772 68.6638 46.0317 68.7223 46.0751C68.7808 46.1184 68.8474 46.1496 68.9183 46.1669C68.9891 46.1841 69.0627 46.187 69.1347 46.1755C69.2067 46.1639 69.2756 46.1381 69.3374 46.0995C69.3992 46.061 69.4527 46.0105 69.4945 45.951C69.5364 45.8915 69.5658 45.8243 69.5811 45.7533C69.5964 45.6824 69.5973 45.609 69.5836 45.5377C69.5699 45.4664 69.5421 45.3985 69.5016 45.3381C69.4783 43.9733 69.9612 42.6478 70.8579 41.6151V41.6151ZM69.5139 45.5176C69.5139 45.5868 69.5072 45.5745 69.5072 45.5043L69.5139 45.5176ZM74.3557 58.6245C74.9865 59.2521 75.8002 59.6655 76.6809 59.8057C77.5616 59.9458 78.4642 59.8056 79.2602 59.405C79.3206 59.3731 79.374 59.3294 79.4171 59.2765C79.4602 59.2236 79.4922 59.1626 79.511 59.0971C79.5299 59.0317 79.5353 58.9631 79.5269 58.8955C79.5185 58.8279 79.4965 58.7627 79.4622 58.7037C79.4279 58.6448 79.382 58.5934 79.3272 58.5525C79.2725 58.5117 79.21 58.4822 79.1435 58.466C79.0771 58.4497 79.0081 58.447 78.9405 58.4579C78.873 58.4689 78.8084 58.4933 78.7506 58.5297C78.1503 58.8222 77.4727 58.919 76.8141 58.8063C76.1554 58.6936 75.5492 58.3772 75.0814 57.9019C74.9852 57.8061 74.8547 57.7523 74.7186 57.7523C74.5825 57.7523 74.4519 57.8061 74.3557 57.9019C74.2594 57.9978 74.2054 58.1277 74.2054 58.2632C74.2054 58.3987 74.2594 58.5286 74.3557 58.6245V58.6245Z" fill="#1D1D1B"/>
<path d="M200.816 136.91C200.071 136.879 124.5 133.352 122.856 133.275C124.705 131.85 126.453 130.299 128.085 128.633C128.617 128.655 199.493 131.956 200.555 131.978C200.69 131.978 200.82 131.925 200.915 131.83C201.011 131.734 201.065 131.605 201.065 131.471C201.065 131.336 201.011 131.207 200.915 131.112C200.82 131.017 200.69 130.963 200.555 130.963C199.9 130.932 129.488 127.679 129.016 127.653C131.716 124.679 133.615 122.032 134.476 118.318C135.062 118.318 138.909 115.392 140.311 110.644C140.828 111.078 141.466 111.344 142.139 111.405C142.532 111.382 142.914 111.267 143.254 111.072C143.595 110.876 143.886 110.604 144.103 110.278C144.32 109.951 144.458 109.579 144.506 109.19C144.554 108.802 144.511 108.407 144.379 108.038C146.029 108.253 147.684 108.443 149.342 108.608C147.559 110.317 145.761 112.015 143.947 113.701C142.467 113.612 140.983 113.498 139.506 113.367C138.856 113.31 138.856 114.324 139.506 114.381C140.646 114.483 141.793 114.565 142.94 114.642C142.437 115.105 141.939 115.58 141.436 116.044C140.952 116.49 141.671 117.203 142.156 116.759C142.888 116.09 143.602 115.409 144.322 114.737C146.959 114.895 149.597 114.971 152.234 114.99C151.89 115.358 151.534 115.719 151.196 116.087C150.748 116.57 151.469 117.286 151.916 116.804C152.476 116.195 153.049 115.599 153.623 115.003C155.101 115.003 156.581 114.982 158.063 114.94C158.199 114.94 158.328 114.886 158.424 114.791C158.519 114.696 158.573 114.567 158.573 114.432C158.573 114.298 158.519 114.169 158.424 114.074C158.328 113.979 158.199 113.925 158.063 113.925C156.91 113.956 155.757 113.97 154.598 113.975C156.143 112.377 157.718 110.808 159.323 109.27C160.191 109.301 164.23 109.365 164.23 109.365C164.247 109.473 164.306 109.571 164.394 109.638C164.482 109.704 164.592 109.734 164.702 109.72C164.825 109.718 164.944 109.679 165.045 109.607C165.145 109.536 165.222 109.437 165.264 109.321C165.307 109.206 165.313 109.081 165.283 108.962C165.253 108.843 165.188 108.736 165.096 108.655C164.657 108.18 163.854 108.345 163.274 108.338C162.306 108.324 161.337 108.293 160.369 108.268C161.701 107.004 163.052 105.763 164.42 104.546C164.911 104.108 164.196 103.397 163.701 103.829C162.083 105.269 160.495 106.738 158.936 108.236C158.803 108.23 156.755 108.207 151.641 107.79C152.47 106.985 153.311 106.186 154.132 105.374C154.222 105.278 154.27 105.151 154.268 105.02C154.265 104.889 154.212 104.763 154.119 104.671C154.026 104.578 153.9 104.525 153.768 104.522C153.636 104.52 153.509 104.568 153.412 104.657C152.387 105.672 151.336 106.664 150.297 107.677C150.185 107.664 147.876 107.505 143.947 106.972C143.866 106.823 143.781 106.678 143.69 106.535C144.081 106.602 144.482 106.567 144.855 106.433C145.228 106.299 145.559 106.071 145.816 105.771C146.074 105.47 146.248 105.109 146.322 104.721C146.396 104.334 146.368 103.933 146.24 103.56C145.746 101.403 141.872 97.6762 136.944 96.8511V95.4919C140.619 95.6614 196.596 98.2794 196.653 98.2794C196.788 98.2794 196.918 98.226 197.013 98.1309C197.109 98.0357 197.163 97.9067 197.163 97.7721C197.163 97.6376 197.109 97.5085 197.013 97.4134C196.918 97.3182 196.788 97.2648 196.653 97.2648C195.665 97.2202 140.232 94.6356 136.944 94.4829C136.944 90.5447 136.944 83.4644 136.937 81.7328C141.95 81.9235 191.817 83.0329 192.48 83.0207C192.614 83.0167 192.741 82.962 192.836 82.8677C192.931 82.7734 192.985 82.6467 192.989 82.5133C194.081 69.2448 197.522 23.3838 196.64 9.98705C196.637 9.85322 196.583 9.72551 196.488 9.63086C196.393 9.53621 196.264 9.48202 196.13 9.47973C195.161 9.44182 71.2006 5.57723 70.7291 5.59841C70.5949 5.60126 70.4669 5.65562 70.3719 5.75016C70.277 5.84469 70.2224 5.97208 70.2195 6.10574C70.2195 7.14715 70.1803 16.9971 70.14 28.0902C68.3413 25.3518 64.0595 24.2758 61.628 26.4946C61.4375 25.3533 60.9006 24.2974 60.0893 23.469C59.2781 22.6405 58.2315 22.0793 57.0902 21.8607C55.949 21.6421 54.7679 21.7767 53.7058 22.2463C52.6437 22.716 51.7515 23.4981 51.1493 24.4876C49.8751 23.7344 48.4086 23.3656 46.928 23.4262C46.5241 23.4526 46.1351 23.5883 45.803 23.8186C45.4708 24.0488 45.2081 24.365 45.043 24.7329C36.195 25.4142 28.0538 33.7901 29.027 48.4902C29.6341 57.7447 33.2035 59.4997 34.739 64.6745C35.1986 66.2637 35.3346 67.9283 35.139 69.5706C34.9433 71.2128 34.4201 72.7996 33.6 74.2378C33.1654 74.9927 32.6256 75.8613 32.937 76.673C33.833 78.9888 41.104 77.9262 42.7157 72.4304C43.1131 74.2847 44.1915 75.9245 45.7397 77.0287C43.7321 77.3844 41.7584 77.9084 39.8395 78.5952C39.7114 78.6334 39.603 78.7192 39.5367 78.8349C39.4704 78.9505 39.4513 79.087 39.4834 79.2163C39.9292 80.6458 40.4545 82.0495 41.057 83.421C39.3549 84.6408 38.0035 86.283 37.137 88.1842C37.3162 88.2099 38.033 88.3047 38.2144 88.3303C41.701 81.298 50.3238 80.8754 58.1347 81.8488C76.9418 84.1792 91.1131 97.2135 100.359 113.768C100.583 114.177 101.455 115.687 101.255 116.291C101.231 116.392 101.239 116.498 101.277 116.594C101.315 116.691 101.382 116.773 101.469 116.83C101.556 116.888 101.658 116.917 101.762 116.915C101.866 116.912 101.967 116.879 102.051 116.817C103.115 117.981 103.672 119.517 103.6 121.089C103.638 121.737 104.657 121.742 104.619 121.089C104.52 119.45 104.224 117.479 102.968 116.313C105.164 116.728 105.357 119.175 106.263 118.781C106.377 118.735 106.47 118.648 106.524 118.538C106.578 118.428 106.589 118.302 106.556 118.184C106.314 117.556 105.938 116.989 105.452 116.521C104.967 116.053 104.385 115.697 103.747 115.477C109.795 110.497 120.016 101.371 127.827 104.245C134.114 106.586 136.675 116.279 130.243 124.698C125.415 130.999 116.691 136.939 109.697 140.205C106.443 141.914 102.855 142.899 99.1805 143.09C94.358 143.26 89.5786 142.133 85.344 139.83C85.2279 139.769 85.0929 139.756 84.9669 139.792C84.8409 139.827 84.7336 139.91 84.6671 140.023C84.6007 140.135 84.5801 140.269 84.6098 140.396C84.6395 140.523 84.7171 140.634 84.8266 140.705C88.2652 142.557 92.049 143.686 95.9437 144.022C99.2639 144.353 102.617 143.967 105.774 142.893C111.447 140.775 116.787 137.86 121.63 134.236C123.056 134.3 200.807 137.927 200.851 137.928C201.477 137.937 201.477 136.935 200.816 136.91V136.91ZM150.686 108.719C153.069 108.937 155.006 109.079 157.928 109.208C156.32 110.77 154.742 112.362 153.195 113.983C150.59 113.976 147.978 113.894 145.372 113.76C147.157 112.1 148.928 110.419 150.686 108.719ZM55.3011 80.561C50.5176 80.2198 45.7811 80.5298 41.8611 82.8858C41.4131 81.7373 41.001 80.5766 40.6056 79.4036C42.7844 78.6408 45.0363 78.1031 47.3256 77.7991C57.055 76.4935 65.1773 79.853 68.227 83.1389C64.0499 81.7217 59.7043 80.8551 55.3011 80.561V80.561ZM124.395 102.21C124.344 102.281 124.316 102.366 124.315 102.453C124.314 102.54 124.339 102.626 124.388 102.698C116.99 102.81 108.994 109.788 103.29 114.5C101.998 115.571 102.588 115.13 102.129 115.281C101.816 114.313 101.373 113.391 100.811 112.541C93.6544 100.036 83.3022 89.0707 69.9787 83.7967C69.9653 83.7343 69.9419 83.6744 69.9093 83.6194C66.5706 78.7235 58.1493 76.6072 52.1483 76.5158C52.6723 76.0353 53.0556 75.4224 53.2575 74.7422C53.4595 74.0621 53.4725 73.3403 53.2952 72.6534C53.985 73.4582 54.9265 74.009 55.9684 74.2172C57.0104 74.4255 58.0924 74.2792 59.0408 73.8019C59.9737 73.2964 60.7904 72.6026 61.4386 71.7649C62.0868 70.9272 62.5522 69.9641 62.8051 68.9371C63.1926 67.5991 63.2061 66.3068 62.1118 65.4683C69.8309 65.2565 72.7518 56.6866 69.0682 50.8752C68.0673 49.214 66.5261 47.9433 64.7002 47.2738C64.1939 45.5076 64.3541 45.977 63.8154 44.2421C64.1514 40.7588 67.8272 39.7944 69.841 36.3847C70.2979 36.8519 70.588 37.1273 71.1435 37.745L71.2622 6.61529C82.3962 6.34546 191.925 10.6293 195.649 10.5178C196.399 22.6434 193.712 59.9524 192.782 72.155C191.897 72.1282 102.785 69.3028 77.5858 68.5145C77.3618 68.8535 77.1258 69.1843 76.8779 69.5069C100.985 70.274 191.356 73.1462 192.713 73.1574C191.912 83.2604 191.995 81.7986 191.993 82.0105C176.885 82.268 83.3963 78.1548 70.9946 77.885C70.9946 76.9183 71.0035 75.3049 71.0091 73.7327C70.756 73.8721 70.5029 74.0081 70.2531 74.1397C70.0762 75.4976 69.9812 76.8648 69.9686 78.234C69.9955 78.3455 69.9082 78.8305 70.4782 78.8684C71.3384 78.913 114.026 80.8275 118.797 81.0248L119.987 93.6645C115.575 93.4615 86.4147 92.1113 86.3598 92.1102C86.2343 92.1211 86.1173 92.1783 86.0318 92.2705C85.9464 92.3627 85.8985 92.4834 85.8977 92.6089C85.8969 92.7343 85.9431 92.8556 86.0273 92.949C86.1115 93.0423 86.2277 93.1011 86.3531 93.1137C87.3107 93.1538 115.09 94.4517 120.083 94.6802L120.34 97.4008C120.341 97.5116 120.378 97.619 120.446 97.707C120.513 97.795 120.608 97.8589 120.715 97.8892C123.072 98.2609 125.441 98.5523 127.822 98.7634C126.461 99.6736 125.296 100.845 124.395 102.21V102.21ZM119.828 81.0605C125.197 81.2761 130.569 81.4875 135.944 81.6949C135.966 85.1091 135.944 94.0714 135.944 96.7229C133.691 96.5154 131.422 96.9152 129.377 97.8803C126.681 97.6851 123.995 97.3779 121.325 96.9593C121.255 96.2245 120.222 85.2797 119.828 81.0605V81.0605ZM125.293 102.718C126.957 100.261 129.508 98.5369 132.416 97.9037C135.324 97.2706 138.365 97.7773 140.907 99.3186C139.758 99.2584 138.61 99.4669 137.556 99.9274C137.442 99.9967 137.36 100.108 137.328 100.237C137.295 100.366 137.315 100.502 137.382 100.617C137.45 100.732 137.56 100.815 137.689 100.85C137.817 100.885 137.955 100.868 138.071 100.803C138.852 100.472 139.693 100.303 140.541 100.305C141.39 100.307 142.229 100.481 143.008 100.815C144.137 101.818 145.762 103.408 145.226 104.811C144.806 105.908 143.576 105.534 142.723 105.198C141.494 104.36 139.99 104.019 138.518 104.246C138.393 104.286 138.288 104.373 138.225 104.488C138.162 104.604 138.147 104.739 138.183 104.865C138.218 104.992 138.301 105.099 138.415 105.166C138.528 105.233 138.663 105.253 138.792 105.223C139.936 105.098 141.089 105.353 142.073 105.946C142.857 106.727 143.824 108.295 143.36 109.491C143.287 109.738 143.139 109.957 142.936 110.117C142.733 110.277 142.484 110.37 142.225 110.383C141.524 110.274 140.883 109.926 140.41 109.399C140.346 109.339 140.267 109.295 140.181 109.273C140.096 109.251 140.006 109.252 139.92 109.274C139.835 109.296 139.756 109.34 139.692 109.401C139.629 109.462 139.581 109.538 139.555 109.622C138.865 112.555 137.166 115.155 134.753 116.972C135.867 109.716 132.138 103.138 125.293 102.714V102.718Z" fill="#1D1D1B"/>
<path d="M120.916 66.9256C121.984 66.8164 122.974 66.3209 123.698 65.5331C124.423 64.7452 124.832 63.72 124.848 62.6518C124.882 61.7286 124.597 60.8216 124.038 60.0835C123.48 59.3453 122.684 58.821 121.783 58.5988C120.979 58.3731 120.125 58.3858 119.328 58.6353C118.531 58.8849 117.824 59.3605 117.294 60.004C116.763 60.6474 116.433 61.4307 116.344 62.2581C116.254 63.0854 116.408 63.9209 116.788 64.6622C117.19 65.3898 117.792 65.9887 118.523 66.3894C119.254 66.7901 120.084 66.976 120.916 66.9256V66.9256ZM121.013 59.493C121.804 59.545 122.544 59.9046 123.071 60.4942C123.599 61.0839 123.873 61.8563 123.834 62.6451C123.845 63.305 123.653 63.9524 123.283 64.5004C122.914 65.0483 122.385 65.4707 121.768 65.7107C121.15 65.9507 120.474 65.9968 119.829 65.8429C119.184 65.689 118.602 65.3424 118.161 64.8497C117.72 64.357 117.441 63.7417 117.362 63.0865C117.282 62.4314 117.406 61.7677 117.716 61.1845C118.027 60.6014 118.509 60.1268 119.098 59.8244C119.687 59.5221 120.355 59.4064 121.013 59.493V59.493ZM131.498 67.2679C132.565 67.1587 133.555 66.6632 134.28 65.8753C135.004 65.0874 135.413 64.0622 135.428 62.9941C135.464 62.0706 135.179 61.163 134.621 60.4246C134.062 59.6862 133.265 59.1622 132.364 58.9411C131.559 58.7162 130.707 58.7295 129.91 58.9794C129.113 59.2292 128.406 59.7048 127.876 60.348C127.347 60.9913 127.017 61.7742 126.927 62.6011C126.837 63.4281 126.991 64.2632 127.37 65.0045C127.772 65.7322 128.374 66.3312 129.104 66.7319C129.835 67.1326 130.665 67.3185 131.498 67.2679V67.2679ZM131.593 59.8387C132.385 59.8904 133.125 60.2498 133.653 60.8395C134.181 61.4292 134.455 62.2018 134.416 62.9908C134.427 63.6506 134.235 64.2979 133.865 64.8459C133.496 65.3939 132.967 65.8163 132.35 66.0563C131.732 66.2964 131.056 66.3426 130.411 66.1888C129.767 66.035 129.185 65.6886 128.744 65.196C128.303 64.7034 128.023 64.0882 127.944 63.4331C127.864 62.778 127.988 62.1143 128.298 61.5311C128.608 60.9479 129.09 60.4732 129.679 60.1707C130.268 59.8682 130.936 59.7523 131.593 59.8387V59.8387ZM141.384 67.2679C142.452 67.159 143.442 66.6635 144.167 65.8756C144.891 65.0878 145.3 64.0623 145.316 62.9941C145.35 62.0709 145.065 61.1639 144.506 60.4258C143.948 59.6876 143.152 59.1634 142.251 58.9411C141.447 58.7151 140.593 58.7277 139.796 58.9772C138.998 59.2267 138.291 59.7024 137.761 60.3459C137.231 60.9895 136.901 61.773 136.812 62.6004C136.722 63.4278 136.877 64.2633 137.257 65.0045C137.659 65.7323 138.26 66.3316 138.991 66.7323C139.722 67.133 140.552 67.3188 141.384 67.2679V67.2679ZM141.476 59.8387C142.268 59.8904 143.008 60.2498 143.536 60.8395C144.064 61.4292 144.338 62.2018 144.299 62.9908C144.31 63.6506 144.117 64.2979 143.748 64.8459C143.379 65.3939 142.85 65.8163 142.233 66.0563C141.615 66.2964 140.939 66.3426 140.294 66.1888C139.649 66.035 139.068 65.6886 138.626 65.196C138.185 64.7034 137.906 64.0882 137.827 63.4331C137.747 62.778 137.87 62.1143 138.181 61.5311C138.491 60.9479 138.973 60.4732 139.562 60.1707C140.151 59.8682 140.819 59.7523 141.476 59.8387V59.8387ZM113.749 104.184C113.896 104.277 113.973 104.264 114.489 104.222C114.624 104.222 114.753 104.169 114.849 104.074C114.945 103.979 114.998 103.85 114.998 103.715C114.998 103.58 114.945 103.451 114.849 103.356C114.753 103.261 114.624 103.208 114.489 103.208C112.706 103.12 110.921 103.024 109.137 102.936C109.488 102.593 109.826 102.238 110.182 101.902C110.272 101.806 110.32 101.679 110.318 101.548C110.315 101.416 110.262 101.291 110.169 101.199C110.076 101.106 109.95 101.053 109.818 101.05C109.686 101.048 109.559 101.096 109.462 101.185C109.303 101.343 109.137 101.502 108.978 101.661L108.972 101.673C108.564 102.067 108.17 102.473 107.768 102.872C104.359 102.7 100.953 102.527 97.5498 102.353C96.8934 102.32 96.8934 103.335 97.5498 103.367C100.633 103.525 103.716 103.682 106.8 103.837C105.605 105.041 104.429 106.262 103.271 107.502C102.404 107.451 101.54 107.398 100.678 107.343C100.022 107.305 100.028 108.32 100.678 108.358C101.238 108.389 101.798 108.428 102.366 108.459C102.328 108.504 102.283 108.542 102.245 108.586C101.806 109.068 102.519 109.785 102.965 109.302C103.2 109.043 103.449 108.795 103.691 108.535L108.144 108.802C108.8 108.84 108.793 107.825 108.144 107.787L104.608 107.577C105.784 106.333 106.979 105.106 108.192 103.898C110.023 103.995 111.888 104.09 113.749 104.184V104.184ZM166.573 178.886C166.202 157.144 156.605 142.465 134.957 143.486C128.573 143.778 118.773 145.252 112.374 147.519C108.639 148.842 104.727 150.7 102.481 153.931C101.469 155.425 100.963 157.202 101.037 159.002C101.112 160.803 101.762 162.532 102.894 163.938C103.302 164.446 103.998 163.748 103.615 163.221C100.547 159.006 101.388 153.537 109.698 149.689C115.41 147.031 123.421 145.683 129.707 144.97C135.798 144.285 141.989 144.088 147.844 146.197C160.235 150.639 164.771 163.312 165.445 176.525C165.698 181.59 165.437 186.668 164.668 191.682C164.556 192.322 165.535 192.595 165.649 191.954C166.334 187.632 166.643 183.26 166.573 178.886V178.886Z" fill="#1D1D1B"/>
<path d="M146.554 171.99C146.657 171.243 146.914 170.526 147.309 169.883C147.704 169.24 148.228 168.685 148.848 168.253C148.906 168.22 148.956 168.176 148.997 168.123C149.037 168.071 149.067 168.01 149.084 167.946C149.102 167.882 149.106 167.815 149.097 167.749C149.088 167.684 149.067 167.62 149.033 167.563C149 167.505 148.956 167.455 148.903 167.415C148.85 167.374 148.789 167.345 148.725 167.327C148.66 167.31 148.593 167.306 148.527 167.315C148.461 167.323 148.397 167.345 148.34 167.378C146.93 168.338 145.957 169.812 145.631 171.481L145.612 171.494C145.561 170.943 145.589 170.388 145.695 169.846C145.885 168.732 146.313 167.672 146.951 166.737C147.32 166.193 146.434 165.685 146.072 166.224C145.263 167.422 144.767 168.802 144.626 170.238C144.514 171.277 144.514 173.071 145.899 173.217C147.452 178.435 145.517 184.797 148.626 197.381C148.666 197.506 148.754 197.61 148.87 197.673C148.986 197.735 149.121 197.75 149.248 197.715C149.375 197.68 149.484 197.597 149.551 197.484C149.618 197.371 149.638 197.236 149.607 197.109C146.349 183.93 148.752 177.815 146.554 171.99V171.99ZM100.168 164.745C100.782 166.716 100.8 168.823 100.22 170.804C99.6405 172.785 98.4882 174.553 96.9069 175.887C96.4029 176.308 97.1309 177.008 97.627 176.604C99.3331 175.14 100.575 173.213 101.201 171.059C101.828 168.905 101.812 166.617 101.156 164.471C100.952 163.856 99.9656 164.128 100.168 164.745V164.745ZM139.396 189.773C138.48 188.23 137.104 187.009 135.46 186.279C134.9 186.074 134.297 186.016 133.709 186.11C133.12 186.205 132.566 186.449 132.1 186.818C131.26 187.568 130.649 188.537 130.334 189.615C129.336 192.503 127.967 201.041 128.64 209.345C128.644 209.465 128.691 209.579 128.773 209.668C128.854 209.757 128.964 209.815 129.084 209.831C129.203 209.847 129.325 209.82 129.427 209.755C129.529 209.69 129.604 209.592 129.64 209.477C129.809 209.05 129.992 208.712 129.61 208.495C129.222 202.857 129.636 197.192 130.842 191.67C131.225 189.926 131.945 187.066 134.225 187.066C135.999 187.066 137.644 188.942 138.62 190.426C140.356 193.254 141.29 196.498 141.322 199.812C141.347 200.466 142.367 200.466 142.341 199.812C142.306 196.26 141.287 192.786 139.396 189.773V189.773ZM91.4502 203.896C90.6998 201.01 90.0357 197.923 88.3288 195.41C86.0485 192.049 83.197 192.591 80.8629 195.594C76.8096 200.796 76.7435 210.446 77.0694 216.913C77.1008 217.56 78.12 217.567 78.0886 216.913C77.7773 210.805 77.7258 202.941 80.7923 197.541C81.4452 196.208 82.4923 195.106 83.7928 194.384C85.3216 193.689 86.4046 194.433 87.3477 195.772C88.9918 198.1 89.6504 200.988 90.3515 203.696C91.5779 208.409 91.4446 211.352 92.2757 215.515C92.4022 216.155 93.3834 215.882 93.2568 215.242C92.4997 211.462 92.4392 207.698 91.4502 203.896V203.896ZM40.5227 189.718C40.0053 188.418 39.4397 186.967 37.9994 186.459C37.3268 186.272 36.6156 186.272 35.9429 186.459C35.2702 186.645 34.6618 187.012 34.1835 187.518C33.1717 188.692 32.4515 190.087 32.0813 191.589C30.3587 196.941 30.0978 202.841 29.8648 208.389C29.839 209.042 30.8582 209.042 30.884 208.389C31.108 203.037 31.6736 187.249 37.025 187.321C38.509 187.34 39.0701 188.837 39.5349 190.004C42.0849 196.462 43.4875 203.312 43.68 210.248C43.68 210.382 43.7337 210.511 43.8293 210.606C43.9248 210.702 44.0544 210.755 44.1896 210.755C44.3248 210.755 44.4544 210.702 44.5499 210.606C44.6455 210.511 44.6992 210.382 44.6992 210.248C44.5052 203.216 43.0923 196.271 40.5227 189.718V189.718ZM177.769 52.3581C179.024 52.8766 180.072 53.793 180.75 54.965C180.957 54.7221 181.095 54.4295 181.153 54.1165C181.211 53.8036 181.185 53.481 181.078 53.181C180.919 52.8056 180.626 52.502 180.256 52.3287C179.886 52.1554 179.464 52.1246 179.072 52.2422C179.087 51.9389 179.009 51.6382 178.848 51.3803C178.556 51.0001 177.886 50.8317 176.995 51.5319C177.04 51.3619 177.046 51.1838 177.012 51.0112C176.977 50.8386 176.904 50.6761 176.797 50.5362C176.251 50.0423 174.861 50.6477 174.269 51.2342C174.288 51.1857 174.296 51.1336 174.294 51.0814C174.291 51.0293 174.277 50.9784 174.253 50.9321C174.229 50.8858 174.195 50.8452 174.153 50.8131C174.112 50.7809 174.064 50.758 174.013 50.7458C173.221 50.5228 170.8 52.3336 170.781 54.6773C171.499 53.5484 172.586 52.7009 173.86 52.2783C175.133 51.8557 176.514 51.8839 177.769 52.3581V52.3581ZM172.465 56.836C172.465 56.9326 172.494 57.027 172.548 57.1073C172.602 57.1876 172.679 57.2502 172.768 57.2872C172.858 57.3241 172.957 57.3338 173.052 57.315C173.147 57.2961 173.234 57.2496 173.303 57.1813C173.372 57.113 173.418 57.026 173.437 56.9313C173.456 56.8365 173.446 56.7383 173.409 56.6491C173.372 56.5598 173.309 56.4836 173.229 56.4299C173.148 56.3763 173.053 56.3476 172.956 56.3476C172.826 56.3476 172.701 56.3991 172.609 56.4906C172.517 56.5822 172.465 56.7065 172.465 56.836V56.836ZM178.39 57.1281C178.39 56.9986 178.339 56.8744 178.247 56.7828C178.155 56.6912 178.03 56.6397 177.9 56.6397C177.803 56.6397 177.708 56.6684 177.627 56.722C177.546 56.7757 177.484 56.852 177.446 56.9412C177.409 57.0305 177.4 57.1286 177.419 57.2234C177.437 57.3181 177.484 57.4051 177.553 57.4734C177.621 57.5417 177.709 57.5883 177.804 57.6071C177.899 57.6259 177.998 57.6163 178.087 57.5793C178.177 57.5423 178.254 57.4797 178.308 57.3994C178.361 57.3191 178.39 57.2247 178.39 57.1281V57.1281ZM176.485 58.6623C176.371 58.5991 176.237 58.5816 176.11 58.6135C175.984 58.6455 175.874 58.7244 175.804 58.8341C175.809 58.8281 175.813 58.8218 175.817 58.8151C175.76 58.8848 175.681 58.9319 175.593 58.9478L175.567 58.9545C175.412 58.9658 175.256 58.9613 175.102 58.9411C174.953 58.924 174.807 58.8865 174.668 58.8296C174.649 58.8229 174.637 58.8106 174.617 58.804C174.559 58.7707 174.496 58.7491 174.429 58.7404C174.363 58.7317 174.296 58.736 174.232 58.7532C174.167 58.7703 174.107 58.7999 174.054 58.8403C174.001 58.8807 173.957 58.931 173.923 58.9885C173.89 59.046 173.868 59.1094 173.859 59.1752C173.851 59.241 173.855 59.3079 173.872 59.3721C173.889 59.4362 173.919 59.4964 173.96 59.5491C174 59.6018 174.051 59.646 174.108 59.6792C174.308 59.7815 174.52 59.8565 174.739 59.9022C176.533 60.2635 177.14 59.0058 176.485 58.6623V58.6623ZM169.809 63.4123C170.398 63.8036 170.605 63.8783 172.663 65.0491C172.948 65.2063 173.072 65.029 173.783 64.5663V65.7593C173.783 65.8602 173.823 65.9569 173.894 66.0282C173.966 66.0995 174.063 66.1395 174.164 66.1395C174.266 66.1395 174.363 66.0995 174.435 66.0282C174.506 65.9569 174.546 65.8602 174.546 65.7593V63.8638C174.546 63.7972 174.528 63.7319 174.495 63.6742C174.461 63.6166 174.413 63.5685 174.356 63.5348C174.298 63.5011 174.232 63.4829 174.166 63.4819C174.099 63.4809 174.033 63.4973 173.974 63.5293C173.598 63.7769 173.228 64.0244 172.854 64.2719L170.415 62.8704C170.575 62.288 170.948 61.786 171.46 61.4621C171.853 61.1956 171.491 60.53 171.071 60.802C170.438 61.2119 169.955 61.8151 169.695 62.5214C169.594 62.8336 169.542 63.2573 169.809 63.4123V63.4123ZM180.028 61.0284C179.619 60.7552 179.238 61.422 179.645 61.6873C180.154 62.0172 180.525 62.5201 180.69 63.1023L178.25 64.5038C177.874 64.2563 177.504 64.0088 177.13 63.7612C177.072 63.7275 177.005 63.7098 176.938 63.71C176.87 63.7101 176.804 63.7281 176.746 63.7621C176.687 63.7961 176.639 63.8449 176.606 63.9035C176.573 63.9622 176.556 64.0285 176.557 64.0957V65.9912C176.557 66.0921 176.597 66.1888 176.669 66.2601C176.74 66.3314 176.837 66.3715 176.939 66.3715C177.04 66.3715 177.137 66.3314 177.209 66.2601C177.28 66.1888 177.321 66.0921 177.321 65.9912V64.7982C178.021 65.2565 178.148 65.4393 178.441 65.281C179.084 64.913 180.97 63.8404 181.262 63.6631C181.376 63.5756 181.458 63.4529 181.495 63.3141C181.532 63.1754 181.522 63.0283 181.466 62.896C181.223 62.124 180.713 61.4624 180.028 61.0284V61.0284Z" fill="#1D1D1B"/>
<path d="M172.407 48.0821C172.846 42.031 173.02 23.6079 173.02 17.5924C173.037 16.8432 174.39 16.9134 133.848 16.1429C133.714 16.1458 133.586 16.2002 133.491 16.2947C133.396 16.3892 133.341 16.5166 133.338 16.6503L132.192 49.2729C132.194 49.4071 132.248 49.5355 132.343 49.6304C132.438 49.7253 132.567 49.7791 132.702 49.7803C133.773 49.8271 162.12 51.0291 167.546 51.2588C161.506 58.3557 167.357 69.6674 176.618 68.8189C179.256 68.4949 181.69 67.2419 183.479 65.2866C185.269 63.3312 186.297 60.8027 186.377 58.1584C186.499 51.3357 179.278 46.0762 172.407 48.0821V48.0821ZM162.95 50.0412L144.77 49.2551C144.554 44.581 145.33 38.3772 148.819 35.2418C148.711 35.4596 148.655 35.699 148.653 35.9418C148.652 36.1846 148.707 36.4245 148.812 36.6433C149.296 37.5353 150.329 37.2008 151.125 36.7314C151.548 38.5756 152.895 38.6436 153.578 37.7661C153.855 37.337 153.999 36.8358 153.991 36.3256C153.994 36.257 153.983 36.1885 153.959 36.1242C153.935 36.06 153.898 36.0012 153.851 35.9516C153.803 35.9019 153.746 35.8624 153.683 35.8354C153.619 35.8084 153.551 35.7945 153.482 35.7945C153.413 35.7945 153.345 35.8084 153.281 35.8354C153.218 35.8624 153.161 35.9019 153.113 35.9516C153.066 36.0012 153.029 36.06 153.005 36.1242C152.98 36.1885 152.97 36.257 152.973 36.3256C152.979 36.5951 152.921 36.8622 152.806 37.1061C152.778 37.1591 152.738 37.2043 152.688 37.2376C152.638 37.2709 152.58 37.2912 152.52 37.2967C152.352 37.1545 152.232 36.9635 152.177 36.7504C152.075 36.4595 152.037 36.1505 152.065 35.8439C152.064 35.7551 152.04 35.668 151.995 35.5913C151.95 35.5146 151.886 35.451 151.808 35.4068C151.731 35.3626 151.643 35.3393 151.554 35.3393C151.465 35.3393 151.377 35.3626 151.3 35.4068C150.844 35.7835 150.308 36.0506 149.732 36.1873C149.527 36.1795 149.732 35.6421 149.897 35.4068C150.109 35.0857 150.534 34.5148 150.489 34.1123C150.655 34.0298 150.825 33.954 151.005 33.8893C152.005 34.4925 153.149 34.8151 154.318 34.8228C155.487 34.8304 156.636 34.5229 157.643 33.9328C157.921 34.0601 158.189 34.2065 158.445 34.371C158.344 34.3669 158.244 34.3929 158.157 34.4456C158.071 34.4984 158.002 34.5755 157.959 34.6673C157.917 34.7591 157.903 34.8613 157.919 34.961C157.935 35.0607 157.981 35.1534 158.05 35.2273C158.206 35.4409 158.303 35.6919 158.33 35.9547C158.357 36.2175 158.314 36.4828 158.204 36.7236C157.813 36.5461 157.475 36.2706 157.223 35.9242C157.151 35.8555 157.059 35.8092 156.961 35.7911C156.862 35.773 156.761 35.7838 156.668 35.8222C156.576 35.8606 156.496 35.9249 156.44 36.0073C156.383 36.0898 156.352 36.1868 156.35 36.2865C156.372 36.5675 156.423 37.1785 156.139 37.2187C155.94 37.2432 155.531 36.456 155.452 36.2676C155.414 36.1408 155.328 36.0338 155.212 35.9694C155.096 35.9051 154.959 35.8884 154.831 35.9231C154.703 35.9578 154.593 36.041 154.526 36.1549C154.458 36.2689 154.439 36.4046 154.47 36.533C154.757 37.2243 155.292 38.2902 156.196 38.2199C156.407 38.1998 156.609 38.1271 156.784 38.0086C156.958 37.8901 157.1 37.7296 157.196 37.542C157.341 37.2555 157.145 37.3034 157.637 37.561C159.234 38.3727 159.87 35.9431 158.936 34.7066C161.727 36.8596 162.632 40.7476 162.95 44.232C163.076 46.1664 163.076 48.1068 162.95 50.0412ZM147.504 28.7726C147.514 28.6452 147.552 28.5216 147.616 28.4108C147.679 28.3 147.767 28.2048 147.873 28.1323C147.978 28.0597 148.099 28.0115 148.226 27.9913C148.352 27.9711 148.482 27.9794 148.605 28.0155C148.703 28.041 148.807 28.0274 148.895 27.9776C148.983 27.9278 149.048 27.8458 149.076 27.749C149.308 26.5028 149.972 25.3775 150.954 24.5704C151.935 23.7632 153.171 23.3258 154.444 23.3349C155.716 23.3439 156.946 23.7988 157.915 24.6198C158.885 25.4408 159.533 26.5755 159.747 27.8248C159.763 27.8804 159.792 27.9317 159.83 27.9748C159.869 28.0179 159.917 28.0517 159.971 28.0737C160.025 28.0957 160.083 28.1053 160.141 28.1017C160.199 28.0982 160.256 28.0817 160.307 28.0534C160.464 27.9857 160.638 27.9664 160.806 27.9978C160.975 28.0293 161.13 28.1102 161.251 28.23C161.373 28.3499 161.456 28.5033 161.49 28.6705C161.524 28.8377 161.506 29.0111 161.44 29.1684C161.384 29.2734 161.307 29.3665 161.215 29.4421C161.123 29.5177 161.016 29.5745 160.902 29.6092C160.787 29.6439 160.667 29.6558 160.548 29.6442C160.429 29.6327 160.314 29.5979 160.208 29.5419C160.11 29.5149 160.005 29.5277 159.916 29.5777C159.828 29.6277 159.763 29.7107 159.736 29.8084C158.52 35.3834 150.296 35.5406 149.053 29.8786C149.025 29.7817 148.96 29.6995 148.872 29.6497C148.784 29.5999 148.68 29.5864 148.583 29.6121C148.454 29.6521 148.318 29.6603 148.185 29.6363C148.053 29.6122 147.928 29.5565 147.822 29.4739C147.716 29.3914 147.632 29.2844 147.576 29.1622C147.521 29.0401 147.496 28.9064 147.504 28.7726V28.7726ZM164.015 44.9768C163.557 37.9234 161.291 36.0847 161.551 36.0847C162.04 35.9833 162.86 34.0521 161.876 32.5167C162.042 32.6539 162.238 32.7507 162.448 32.7994C162.659 32.8482 162.878 32.8477 163.088 32.7978C163.298 32.748 163.493 32.6502 163.659 32.5122C163.825 32.3742 163.956 32.1998 164.042 32.0027C164.182 31.8198 164.278 31.6069 164.322 31.3807C164.365 31.1545 164.355 30.9214 164.292 30.6998C164.229 30.4782 164.115 30.2743 163.959 30.1043C163.803 29.9342 163.609 29.8028 163.393 29.7203C163.705 29.238 163.899 28.6895 163.958 28.1192C164.018 27.5488 163.943 26.9724 163.738 26.4363C163.534 25.9002 163.206 25.4194 162.78 25.0326C162.355 24.6457 161.845 24.3636 161.29 24.2089C161.36 23.5058 161.214 22.7983 160.872 22.1791C160.531 21.5599 160.009 21.0579 159.376 20.739C158.54 20.3026 157.627 20.0312 156.688 19.9395C155.644 19.9446 154.601 19.879 153.567 19.7433C152.67 19.4958 151.716 19.5607 150.862 19.9274C150.008 20.2941 149.306 20.9404 148.872 21.7592C148.592 22.2799 148.597 23.4852 148.011 23.6625C147.045 23.8739 146.166 24.3715 145.489 25.0897C145.165 25.4579 144.993 25.9344 145.007 26.4236C145.021 26.9129 145.221 27.3787 145.565 27.7278C144.962 28.2141 144.518 28.8685 144.29 29.6073C144.062 30.3461 144.06 31.1359 144.285 31.8756C144.896 33.3213 145.913 34.5604 147.215 35.4436C144.248 38.9659 143.552 44.6234 143.743 49.2161L133.222 48.7623C134.4 15.2755 134.356 17.2223 134.359 17.171C135.255 17.1832 172.001 18.063 172.001 18.063C171.98 22.2543 171.814 42.3521 171.361 48.4512C170.305 48.8908 169.334 49.51 168.491 50.2809L163.974 50.0869C164.125 48.3874 164.14 46.6787 164.018 44.9768H164.015ZM185.362 58.155C185.277 60.2882 184.522 62.3412 183.205 64.0258C181.888 65.7104 180.074 66.9421 178.017 67.5478C170.535 69.5225 164.017 61.713 166.722 54.5915C167.432 52.7767 168.696 51.2294 170.337 50.1679C171.977 49.1063 173.91 48.5838 175.865 48.6742C180.737 48.8905 185.472 52.7752 185.366 58.155H185.362Z" fill="#1D1D1B"/>
<path d="M151.854 28.2753C151.951 28.2753 152.046 28.2467 152.127 28.193C152.207 28.1393 152.27 28.0631 152.307 27.9738C152.344 27.8846 152.354 27.7864 152.335 27.6917C152.316 27.5969 152.27 27.5099 152.201 27.4416C152.132 27.3733 152.045 27.3268 151.95 27.308C151.855 27.2891 151.756 27.2988 151.666 27.3357C151.577 27.3727 151.5 27.4353 151.446 27.5156C151.392 27.5959 151.364 27.6904 151.364 27.7869C151.364 27.9165 151.415 28.0407 151.507 28.1323C151.599 28.2239 151.724 28.2753 151.854 28.2753ZM156.884 27.8282C156.884 27.9577 156.936 28.0819 157.028 28.1735C157.12 28.2651 157.244 28.3166 157.375 28.3166C157.505 28.3166 157.629 28.2651 157.721 28.1735C157.813 28.0819 157.865 27.9577 157.865 27.8282C157.851 27.7085 157.793 27.5982 157.703 27.5181C157.612 27.438 157.496 27.3937 157.375 27.3937C157.254 27.3937 157.137 27.438 157.046 27.5181C156.956 27.5982 156.898 27.7085 156.884 27.8282ZM88.2493 15.0168C88.1155 15.0213 87.9885 15.0762 87.8939 15.1704C87.7993 15.2646 87.7441 15.391 87.7397 15.5242C87.7206 16.6035 86.5928 48.148 86.5928 48.148C86.5945 48.282 86.6488 48.41 86.744 48.5048C86.8392 48.5995 86.9678 48.6536 87.1024 48.6553C93.3621 48.9073 125.792 50.3055 125.905 50.2977C126.939 50.2274 127.025 49.176 127.42 16.482C127.437 15.7059 128.751 15.7907 88.2493 15.0168V15.0168ZM102.908 32.6417C103.222 32.8491 103.554 33.0275 103.901 33.1746C104.073 33.5926 104.314 33.9787 104.615 34.3164C104.055 35.1593 103.506 36.009 102.952 36.853C102.119 38.1174 101.823 38.191 102.423 39.2625C103.423 41.0131 104.487 42.7227 105.615 44.3915C105.667 44.475 105.742 44.5417 105.832 44.5838C105.921 44.6259 106.021 44.6415 106.119 44.6288C106.217 44.6161 106.309 44.5756 106.384 44.5122C106.46 44.4488 106.515 44.3651 106.544 44.2711C107.33 42.6076 108.207 40.9881 109.17 39.4197C109.779 38.2847 109.575 38.2635 108.952 37.0035C108.539 36.1662 108.125 35.331 107.71 34.4981C108.078 34.2014 108.33 33.7867 108.424 33.3251C108.913 33.1727 109.381 32.9619 109.819 32.6974C113.447 34.4658 114.625 38.9113 114.992 42.9331C115.116 44.8829 115.113 46.8386 114.983 48.788L96.8162 48.0075C96.5496 42.4202 97.7189 34.8237 102.908 32.6417V32.6417ZM105.414 34.953C105.86 35.1469 106.363 35.1653 106.822 35.0043C107.192 35.7335 108.144 37.6647 108.252 37.8866C108.322 38.0327 108.52 38.2757 108.522 38.4352C108.522 38.6582 106.821 41.3152 105.974 43.0836C105.035 41.6696 104.142 40.2249 103.299 38.7519C103.055 38.327 102.864 38.8277 105.414 34.953V34.953ZM105.309 33.5615C105.932 33.6642 106.568 33.6751 107.194 33.5939C107.075 33.7533 106.919 33.8817 106.74 33.968C106.56 34.0542 106.362 34.0957 106.163 34.0889C105.989 34.0732 105.821 34.0174 105.673 33.9258C105.525 33.8343 105.4 33.7095 105.309 33.5615ZM101.226 28.544C101.189 28.4155 101.103 28.3065 100.986 28.2403C100.87 28.174 100.732 28.1558 100.602 28.1895C100.494 28.2247 100.379 28.2333 100.267 28.2147C100.155 28.196 100.049 28.1506 99.9582 28.0823C99.8676 28.0141 99.795 27.925 99.7465 27.8226C99.6981 27.7203 99.6753 27.6078 99.68 27.4948C99.6879 27.3856 99.7204 27.2797 99.775 27.1847C99.8296 27.0897 99.905 27.0081 99.9955 26.946C100.086 26.8839 100.189 26.8429 100.298 26.826C100.407 26.809 100.518 26.8166 100.623 26.8481C100.753 26.882 100.891 26.8638 101.008 26.7973C101.125 26.7307 101.21 26.6213 101.247 26.4924C101.252 26.4784 101.257 26.4638 101.259 26.4489C101.49 25.2344 102.144 24.1396 103.105 23.3566C104.066 22.5736 105.273 22.1523 106.515 22.1667C107.756 22.1811 108.953 22.6301 109.896 23.4351C110.838 24.2402 111.466 25.3497 111.668 26.5694C111.69 26.6434 111.728 26.7117 111.78 26.769C111.832 26.8263 111.896 26.8713 111.968 26.9006C112.039 26.9298 112.117 26.9426 112.194 26.938C112.271 26.9333 112.347 26.9114 112.414 26.8738C112.548 26.8176 112.695 26.8023 112.838 26.83C112.98 26.8577 113.111 26.927 113.214 27.0292C113.316 27.1313 113.386 27.2615 113.414 27.4033C113.442 27.545 113.426 27.6918 113.37 27.8249C113.267 28.0065 113.096 28.1404 112.894 28.1974C112.693 28.2544 112.477 28.2299 112.293 28.1292C112.163 28.094 112.025 28.1116 111.907 28.178C111.79 28.2445 111.704 28.3544 111.668 28.4838C110.487 33.896 102.42 34.1659 101.226 28.5507V28.544ZM125.552 49.2451L116.01 48.837C116.162 47.1239 116.18 45.4016 116.062 43.6857C115.773 39.2781 114.606 34.264 110.737 32.0362C111.587 31.2805 112.208 30.3029 112.529 29.2141C112.936 29.2574 113.345 29.1575 113.686 28.9316C114.027 28.7058 114.278 28.3682 114.395 27.9776C114.458 27.706 114.456 27.4233 114.389 27.1525C114.322 26.8818 114.191 26.6307 114.008 26.4198C113.825 26.2089 113.594 26.0441 113.335 25.9389C113.075 25.8337 112.794 25.7911 112.515 25.8145C112.491 25.7253 112.472 25.6305 112.439 25.5424C113.092 23.1597 112.151 20.5528 109.063 19.0353C108.754 18.8485 108.39 18.77 108.031 18.8123C107.68 18.8881 107.388 19.294 107.554 19.6106C105.254 18.7978 102.6 18.0909 100.552 19.6363C100.399 19.7351 100.277 19.876 100.202 20.0422C100.164 20.1877 100.17 20.3413 100.222 20.4829C100.273 20.6244 100.366 20.7471 100.489 20.8349C100.738 21.004 101.02 21.1205 101.316 21.1772C100.578 21.1494 99.8487 21.3538 99.2331 21.7615C98.4113 22.0833 97.6458 22.5326 96.9651 23.0928C96.7494 23.2892 96.5931 23.5418 96.514 23.8219C96.4348 24.1021 96.4359 24.3987 96.5171 24.6783C96.8744 25.6172 98.2184 26.0353 99.2566 26.2393C98.9877 26.4608 98.7944 26.7599 98.7033 27.0953C98.6122 27.4307 98.6277 27.786 98.7479 28.1123C98.868 28.4385 99.0868 28.7196 99.3741 28.917C99.6613 29.1143 100.003 29.2181 100.352 29.2141C100.65 30.2558 101.221 31.1993 102.008 31.947C96.7445 34.584 95.5181 42.1169 95.7846 47.9673C91.0997 47.7666 87.7363 47.6217 87.631 47.6183C87.6624 46.7118 88.751 17.19 88.7589 16.0226C89.6549 16.0348 126.408 16.9146 126.408 16.9146C126.167 35.9186 126.036 46.849 125.552 49.2451Z" fill="#1D1D1B"/>
<path d="M103.233 27.2383C103.335 27.2395 103.435 27.2083 103.519 27.1492C103.602 27.0902 103.665 27.0062 103.697 26.9095C103.73 26.8128 103.73 26.7084 103.7 26.6112C103.669 26.514 103.607 26.429 103.525 26.3686C103.433 26.2933 103.315 26.2554 103.196 26.2627C103.077 26.2699 102.965 26.3217 102.882 26.4077C102.815 26.4765 102.769 26.5636 102.752 26.658C102.734 26.7523 102.744 26.8499 102.781 26.9384C102.819 27.027 102.881 27.1026 102.962 27.156C103.042 27.2093 103.136 27.2379 103.233 27.2383V27.2383ZM108.985 26.9239C108.985 27.0534 109.037 27.1776 109.129 27.2692C109.221 27.3608 109.345 27.4123 109.476 27.4123C109.606 27.4123 109.73 27.3608 109.822 27.2692C109.914 27.1776 109.966 27.0534 109.966 26.9239C109.95 26.8057 109.891 26.6974 109.801 26.6189C109.711 26.5405 109.595 26.4972 109.476 26.4972C109.356 26.4972 109.24 26.5405 109.15 26.6189C109.06 26.6974 109.001 26.8057 108.985 26.9239ZM153.941 38.9135C153.796 41.1832 153.759 43.4585 153.829 45.7317C153.829 45.8663 153.882 45.9953 153.978 46.0904C154.073 46.1856 154.203 46.239 154.338 46.239C154.473 46.239 154.603 46.1856 154.699 46.0904C154.794 45.9953 154.848 45.8663 154.848 45.7317C154.779 43.4585 154.816 41.1833 154.96 38.9135C155.008 38.2601 153.983 38.2601 153.941 38.9135ZM156.075 41.0766C156.58 41.4624 157.257 40.7031 156.781 40.2771C156.24 39.7966 155.357 40.5291 156.075 41.0766ZM155.692 42.5094C155.458 43.0033 156.177 43.4616 156.61 43.0613C157.19 42.525 156.071 41.7099 155.692 42.5094ZM156.679 25.7732C156.897 25.7528 157.114 25.8097 157.294 25.9337C157.474 26.0578 157.603 26.2411 157.66 26.4511C157.669 26.4833 157.684 26.5134 157.704 26.5397C157.725 26.5661 157.75 26.5882 157.779 26.6048C157.808 26.6213 157.84 26.632 157.873 26.6363C157.907 26.6405 157.94 26.6382 157.973 26.6295C158.005 26.6208 158.035 26.6059 158.062 26.5855C158.088 26.5652 158.11 26.5398 158.127 26.5109C158.144 26.4821 158.154 26.4502 158.159 26.4172C158.163 26.3841 158.161 26.3506 158.152 26.3185C158.038 26.0214 157.839 25.7637 157.581 25.5768C157.322 25.3899 157.015 25.2819 156.696 25.2659C156.631 25.2675 156.569 25.2938 156.522 25.3395C156.476 25.3852 156.449 25.4468 156.447 25.5117C156.445 25.5765 156.468 25.6397 156.511 25.6884C156.554 25.737 156.614 25.7674 156.679 25.7732ZM150.676 26.4957C150.735 26.5281 150.804 26.5371 150.869 26.5207C150.934 26.5043 150.99 26.4639 151.026 26.4077C151.172 26.2191 151.363 26.0695 151.581 25.9722C151.8 25.8749 152.039 25.833 152.277 25.8502C152.434 25.839 152.457 25.4198 152.214 25.3874C151.095 25.2425 150.227 26.2549 150.676 26.4957ZM152.237 29.6322C152.198 29.6049 152.161 29.5751 152.125 29.543C151.641 29.106 150.914 29.8229 151.405 30.26C152.036 30.8577 152.831 31.2556 153.69 31.4035C154.548 31.5514 155.431 31.4425 156.228 31.0907C155.982 31.393 155.648 31.6123 155.272 31.7184C154.6 31.9169 155.009 32.9627 155.571 32.6829C156.186 32.4813 156.721 32.0934 157.103 31.5735C157.484 31.0535 157.693 30.4278 157.699 29.7839C157.696 29.6846 157.665 29.5884 157.608 29.5066C157.551 29.4249 157.472 29.3612 157.38 29.323C157.288 29.2849 157.187 29.274 157.089 29.2917C156.991 29.3093 156.9 29.3548 156.827 29.4226C156.545 29.7372 156.204 29.9932 155.822 30.176C155.441 30.3588 155.027 30.4648 154.604 30.4878C154.182 30.5108 153.759 30.4504 153.36 30.3101C152.96 30.1698 152.593 29.9523 152.279 29.6701C152.268 29.6542 152.254 29.6412 152.237 29.6322V29.6322ZM102.991 25.1287C103.079 25.1777 103.183 25.1906 103.28 25.1646C103.378 25.1385 103.461 25.0757 103.513 24.9894C103.744 24.5278 104.185 24.8199 104.437 24.6794C104.501 24.6409 104.552 24.5846 104.585 24.5175C104.617 24.4504 104.63 24.3753 104.62 24.3014C104.611 24.2274 104.58 24.1578 104.531 24.101C104.483 24.0442 104.419 24.0027 104.347 23.9814C103.275 23.7495 102.406 24.8232 102.991 25.1287ZM108.698 24.5935C108.862 24.5792 109.026 24.606 109.176 24.6715C109.327 24.737 109.458 24.839 109.558 24.9682C109.836 25.3027 110.46 24.8667 110.093 24.4352C109.922 24.2341 109.706 24.0759 109.463 23.9734C109.22 23.8709 108.955 23.827 108.692 23.8454C108.64 23.8431 108.589 23.8512 108.542 23.8692C108.494 23.8872 108.45 23.9147 108.413 23.95C108.377 23.9854 108.347 24.0278 108.328 24.0747C108.308 24.1216 108.298 24.1721 108.298 24.223C108.299 24.2739 108.31 24.3242 108.33 24.3707C108.351 24.4173 108.381 24.4592 108.418 24.4939C108.456 24.5286 108.5 24.5553 108.548 24.5724C108.596 24.5895 108.647 24.5967 108.698 24.5935V24.5935ZM104.143 28.719C104.146 28.8349 104.188 28.9463 104.262 29.0359C104.336 29.1255 104.437 29.1882 104.551 29.2141C104.587 29.47 104.675 29.7161 104.808 29.9377C104.942 30.1594 105.119 30.3521 105.329 30.5046C105.538 30.6571 105.776 30.7662 106.029 30.8255C106.282 30.8848 106.544 30.893 106.8 30.8498C108.079 30.6268 107.968 28.5719 107.265 28.2853C107.054 28.1917 107.084 28.2218 104.653 28.1995C104.517 28.204 104.388 28.2606 104.293 28.3574C104.198 28.4542 104.145 28.5838 104.143 28.719V28.719ZM188.601 108.308C183.235 105.573 177.632 110.538 174.835 114.788C173.771 116.406 172.595 118.434 172.695 120.433C172.844 123.444 176.215 126.099 181.767 124.707C186.93 123.427 191.216 118.828 191.546 113.647C191.69 112.561 191.483 111.457 190.953 110.497C190.423 109.537 189.599 108.77 188.601 108.308V108.308ZM179.511 111.13C181.026 109.903 183.991 107.89 185.832 108.549C185.792 109.056 185.086 109.506 184.78 109.906C184.592 110.272 184.377 110.624 184.136 110.958C183.589 111.491 182.33 111.521 182.027 112.582C180.836 112.442 179.646 112.176 178.435 112.081C178.613 112.088 179.346 111.264 179.511 111.13V111.13ZM177.352 123.921C176.511 123.813 175.722 123.459 175.083 122.905C174.443 122.351 173.983 121.621 173.759 120.807C173.311 118.385 175.904 114.773 177.518 113.002C179.013 113.08 180.5 113.277 181.964 113.592C182.051 113.94 182.229 114.259 182.48 114.516C182.731 114.773 183.046 114.96 183.392 115.057C183.739 115.155 184.105 115.159 184.454 115.07C184.803 114.98 185.122 114.801 185.379 114.55C188.933 115.804 189.403 116.557 189.888 116.471C187.872 121.606 182.028 124.854 177.352 123.921V123.921ZM190.544 113.217C190.535 114.045 190.409 114.867 190.169 115.659C190.138 115.623 190.1 115.593 190.057 115.57C188.711 114.824 187.304 114.19 185.853 113.674C185.939 113.389 185.957 113.088 185.908 112.795C185.858 112.501 185.741 112.223 185.566 111.982C185.209 111.506 184.929 111.626 185.217 111.055C185.739 110.193 186.409 109.429 187.197 108.797C189.716 109.735 190.56 111.198 190.544 113.216V113.217Z" fill="#1D1D1B"/>
<path d="M205.248 89.326C206.534 88.8989 208.295 89.3171 211.313 87.5877C212.287 87.0235 213.783 86.1382 213.586 84.8169C213.37 83.3897 211.752 83.0407 210.562 83.3262C208.56 83.8974 206.727 84.9417 205.218 86.3701C205.205 86.1233 205.186 85.8762 205.16 85.6286C206.03 83.4254 208.955 82.0239 210.339 78.6521C210.881 77.3275 211.505 74.8611 209.589 74.2824C207.573 73.6736 206.429 75.9192 205.696 77.3587C205.141 78.4463 204.646 79.5629 204.212 80.7037C204.052 80.1841 203.876 79.6701 203.683 79.1628C202.521 76.14 200.123 74.2333 199.039 74.9704C198.132 75.5936 198.638 77.9006 199.121 79.0301C200.142 81.0567 201.571 82.8527 203.319 84.3063C203.405 84.3848 203.515 84.433 203.632 84.4433C203.748 84.4535 203.864 84.4254 203.963 84.3631C204.174 85.8338 204.12 85.4491 204.001 85.9676C202.274 84.848 200.411 83.949 198.458 83.2916C198.138 83.1191 197.782 83.0209 197.418 83.0043C197.054 82.9877 196.691 83.0531 196.356 83.1957C196.104 83.3678 195.902 83.6023 195.769 83.8761C195.636 84.1499 195.578 84.4534 195.599 84.7567C195.773 87.4037 201.05 90.0719 204.25 88.4853C204.25 88.5678 204.25 88.6503 204.243 88.7328C203.919 88.9589 203.67 89.2771 203.53 89.646C203.371 90.0452 203.74 90.2927 204.077 90.2481C204.123 90.437 204.138 90.632 204.122 90.8257C204.458 90.8134 204.794 90.7933 205.13 90.7811C205.191 90.2838 205.229 89.8077 205.248 89.326V89.326Z" fill="#86F2AA"/>
<path d="M216.962 93.0099C216.913 92.2199 216.811 91.4339 216.657 90.6573C216.627 90.5501 216.563 90.4556 216.474 90.388C216.386 90.3204 216.277 90.2834 216.166 90.2827C213.452 90.4042 193.215 91.2783 192.233 91.3229C191.966 91.3229 191.785 91.4233 191.742 91.6909C190.568 98.3619 191.322 105.418 197.298 108.764C201.361 110.756 206.036 111.124 210.363 109.791C216.52 107.353 217.58 99.6029 216.962 93.0099V93.0099Z" fill="#FF9F48"/>
<path d="M59.7486 47.3228C60.9684 46.89 62.278 46.7699 63.5566 46.9738C62.4461 42.8582 60.9558 38.8535 59.1046 35.011C56.5678 29.882 53.9202 26.2939 49.0582 24.6995C48.6286 24.5078 48.1633 24.4082 47.6926 24.4071C47.2218 24.4059 46.756 24.5033 46.3254 24.6928C49.2299 26.1 51.7944 28.1159 53.8429 30.6023C57.5289 35.4188 59.5954 41.2697 59.7486 47.3228V47.3228Z" fill="#AC47F5"/>
<path d="M54.3715 54.858C53.9463 56.5909 54.1274 58.4164 54.8849 60.0331C55.6423 61.6497 56.9309 62.9609 58.5379 63.7501C60.0286 64.4297 61.6937 64.6348 63.3059 64.3375C64.918 64.0402 66.3988 63.2549 67.5461 62.0888C70.1825 59.2466 70.196 54.548 68.1889 51.3848C63.952 44.8955 55.9877 48.2271 54.3715 54.858V54.858Z" fill="#AC47F5"/>
</svg>
