<svg width="443" height="898" viewBox="0 0 443 898" fill="none" xmlns="http://www.w3.org/2000/svg">
<path d="M393.99 0.569824H48.81C21.853 0.569824 0 22.4228 0 49.3798V848.69C0 875.647 21.853 897.5 48.81 897.5H393.99C420.947 897.5 442.8 875.647 442.8 848.69V49.3798C442.8 22.4228 420.947 0.569824 393.99 0.569824Z" fill="#AB8FE2"/>
<path d="M383.68 26.6099H62.5202C43.0024 26.6099 27.1802 42.4321 27.1802 61.9499V837.24C27.1802 856.758 43.0024 872.58 62.5202 872.58H383.68C403.198 872.58 419.02 856.758 419.02 837.24V61.9499C419.02 42.4321 403.198 26.6099 383.68 26.6099Z" fill="white"/>
<path d="M309.88 0H134.05C122.248 0 112.68 9.56768 112.68 21.37V31.86C112.68 43.6623 122.248 53.23 134.05 53.23H309.88C321.683 53.23 331.25 43.6623 331.25 31.86V21.37C331.25 9.56768 321.683 0 309.88 0Z" fill="#AB8FE2"/>
<path d="M129.1 857.3H317.1" stroke="#E2E2E2" stroke-width="6.79" stroke-linecap="round" stroke-linejoin="round"/>
</svg>
